<?xml version="1.0" encoding="utf-8"?>
<!-- Generator: Adobe Illustrator 22.0.1, SVG Export Plug-In . SVG Version: 6.00 Build 0)  -->
<svg version="1.1" xmlns="http://www.w3.org/2000/svg" xmlns:xlink="http://www.w3.org/1999/xlink" x="0px" y="0px"
	 viewBox="0 0 616.7 354" style="enable-background:new 0 0 616.7 354;" xml:space="preserve">
<style type="text/css">
	.st0{fill:#FDBA3F;}
	.st1{fill:none;stroke:#FDBA3F;stroke-miterlimit:10;}
	.st2{fill:none;stroke:#F15826;stroke-width:2;stroke-miterlimit:10;}
	.st3{fill:#8DC63F;}
	.st4{fill:#B9D989;}
	.st5{fill:#ED1C24;}
	.st6{fill:#F58466;}
	.st7{fill:none;stroke:#000000;stroke-miterlimit:10;}
	.st8{fill:none;stroke:#000000;stroke-miterlimit:10;stroke-dasharray:4.4005,4.4005;}
	.st9{fill:none;stroke:#000000;stroke-width:0.75;stroke-miterlimit:10;}
	.st10{fill:#FFFFFF;stroke:#000000;stroke-width:2;stroke-miterlimit:10;}
	.st11{fill:none;stroke:#8DC63F;stroke-width:2;stroke-miterlimit:10;}
	.st12{fill:none;stroke:#D7DF23;stroke-width:2;stroke-miterlimit:10;}
	.st13{fill:none;stroke:#D7DF23;stroke-width:2;stroke-miterlimit:10;stroke-dasharray:3.7167,3.7167;}
	.st14{fill:none;stroke:#27AAE1;stroke-width:2;stroke-miterlimit:10;}
	.st15{fill:none;stroke:#F7941D;stroke-width:2;stroke-miterlimit:10;}
	.st16{fill:none;stroke:#F15A29;stroke-width:2;stroke-miterlimit:10;}
	.st17{fill:none;stroke:#BE1E2D;stroke-width:2;stroke-miterlimit:10;}
	.st18{fill:none;stroke:#FAA74A;stroke-width:2;stroke-miterlimit:10;}
	.st19{fill:none;stroke:#1B75BC;stroke-width:2;stroke-miterlimit:10;}
	.st20{fill:none;stroke:#F7941D;stroke-width:2;stroke-miterlimit:10;stroke-dasharray:3.7167,3.7167;}
	.st21{fill:none;stroke:#556683;stroke-width:2;stroke-miterlimit:10;}
	.st22{fill:#D7DF23;}
	.st23{fill:#F7941D;}
	.st24{fill:#F15A29;}
	.st25{fill:#27AAE1;}
	.st26{fill:#BE1E2D;}
	.st27{fill:#1B75BC;}
	.st28{fill:#556683;}
	.st29{fill:#FAA74A;}
	.st30{fill:none;stroke:#808285;stroke-miterlimit:10;}
	.st31{fill:none;stroke:#808285;stroke-miterlimit:10;stroke-dasharray:3.7361,3.7361;}
	.st32{fill:#808285;}
	.st33{fill:none;stroke:#000000;stroke-width:3;stroke-miterlimit:10;stroke-dasharray:7.8514,7.8514;}
	.st34{fill:none;stroke:#000000;stroke-width:3;stroke-miterlimit:10;}
	.st35{font-family:'Helvetica-Bold';}
	.st36{font-size:14px;}
</style>
<g id="Layer_2">
</g>
<g id="Layer_1">
	<g>
		<path class="st0" d="M118.1,256.7c-0.6-0.3-1.2-0.6-1.9-0.5c-0.7,0.1-1.2,0.6-1.5,1.1c-0.7,1.1-1,2.5-1.2,3.8
			c-0.4,2.6-0.5,5.3-0.6,8c-0.1,2.7-0.2,5.4-0.7,8c-0.1,0.7-0.3,1.3-0.7,1.9c-0.2,0.3-0.4,0.6-0.7,0.7c-0.3,0.2-0.6,0.4-0.9,0.5
			c-1.2,0.6-2.5,1.1-3.8,1.5c-5.2,1.5-10.5,2.2-15.8,2.8l-4,0.5c-0.7,0.1-1.3,0.2-2,0.3c-0.1,0-0.3,0.1-0.4,0.1c0,0,0.1,0,0.1-0.2
			c0-0.1-0.1-0.1-0.1-0.1c0,0,0,0,0.1,0l0.2,0.1c0.3,0.1,0.6,0.1,1,0.2c2.6,0.4,5.3,0.7,8,0.9c5.3,0.3,10.7,0.5,16-0.2
			c2.6-0.4,5.3-0.9,7.5-2.3c0.5-0.4,1-0.8,1.4-1.3c0.3-0.5,0.6-1.1,0.9-1.7c0.5-1.2,0.7-2.5,0.8-3.8c0.1-2.6-0.3-5.3-0.7-7.9
			c-0.4-2.6-0.8-5.3-1-8c-0.4-5.3-0.1-10.8,1.5-16c0.8-2.6,1.9-5.1,3.2-7.4c1.2-2.4,2.6-4.7,3.7-7.1c1.1-2.4,1.9-4.9,2.4-7.5
			c0.5-2.6,0.5-5.3,0.5-7.9c0-5.3-0.4-10.7-1.2-15.9c-0.8-5.3-1.8-10.5-3.4-15.6c-1.5-5.1-3.7-10-6.6-14.4l-2.2-3.4
			c-0.7-1.1-1.3-2.5-1.5-3.9c-0.2-1.4-0.1-2.8,0-4.1c0.1-1.3,0.2-2.7,0.4-4c0.6-5.3,1.4-10.6,2.1-15.9l0.3-2c0.1-0.6,0.1-1.3,0-1.9
			c-0.1-1.3-0.2-2.6-0.4-4c-0.4-2.6-0.9-5.3-1.8-7.7l0,0.1l-7.1-8.7l0,0l0-0.1c-0.5-0.8-1.3-1.6-1.9-2.4l-2.1-2.4
			c-0.4-0.4-0.7-0.9-1-1.3c-0.3-0.5-0.6-0.9-0.8-1.4c-0.5-0.9-1-1.9-1.4-2.9c-1.7-3.9-2.6-8.1-3-12.3l0.1,0
			c0.5,4.2,1.5,8.4,3.2,12.2c0.4,1,0.9,1.9,1.5,2.8c0.3,0.5,0.5,0.9,0.8,1.3c0.3,0.5,0.6,0.8,0.9,1.2l2.2,2.3c0.7,0.8,1.5,1.5,2,2.5
			l0-0.1l7.2,8.6l0,0l0,0c1,2.6,1.4,5.2,1.9,7.9c0.2,1.3,0.4,2.7,0.5,4c0,0.7,0,1.4,0,2.1l-0.2,2c-0.6,5.3-1.3,10.6-1.9,15.9
			c-0.1,1.3-0.3,2.7-0.4,4c-0.1,1.3-0.1,2.6,0.1,3.9c0.3,2.5,2.2,4.6,3.6,6.9c2.9,4.5,5.1,9.5,6.7,14.7c1.6,5.1,2.7,10.4,3.4,15.7
			c0.7,5.3,1.1,10.7,1.1,16.1c0,2.7-0.1,5.4-0.6,8.1c-0.5,2.7-1.3,5.3-2.5,7.7c-1.1,2.5-2.5,4.8-3.7,7.1c-1.2,2.4-2.4,4.8-3.1,7.3
			c-1.6,5.1-1.9,10.5-1.5,15.7c0.2,2.7,0.6,5.3,1,7.9c0.4,2.6,0.8,5.3,0.7,8c-0.1,1.4-0.3,2.7-0.9,4c-0.3,0.6-0.6,1.2-1,1.8
			c-0.4,0.6-0.9,1.1-1.5,1.4c-2.4,1.5-5.1,2-7.7,2.4c-5.3,0.7-10.7,0.5-16.1,0.1c-2.7-0.2-5.3-0.5-8-0.9c-0.3-0.1-0.7-0.1-1-0.2
			l-0.3-0.1c0,0-0.1,0-0.2-0.1c0,0-0.1-0.1-0.1-0.2c0-0.2,0.1-0.2,0.1-0.3c0.2-0.1,0.4-0.1,0.6-0.2c0.7-0.1,1.3-0.2,2-0.3l4-0.4
			c5.3-0.6,10.6-1.3,15.8-2.7c1.3-0.4,2.5-0.8,3.7-1.4c0.3-0.2,0.6-0.3,0.9-0.5c0.3-0.2,0.5-0.4,0.7-0.7c0.3-0.6,0.5-1.2,0.6-1.8
			c0.5-2.6,0.6-5.3,0.7-8c0.1-2.7,0.3-5.3,0.7-8c0.2-1.3,0.5-2.7,1.2-3.8c0.3-0.6,0.9-1.1,1.6-1.2
			C116.9,256.1,117.6,256.3,118.1,256.7L118.1,256.7z"/>
	</g>
	<path class="st1" d="M114,167.2c4.3,32.1,10.7,36,15.3,53.7"/>
	<path class="st1" d="M115.8,148.2c-1.8,20.8-4.9,38.8-0.6,47.9c4.3,9.2,9.2,25.4,8.9,32.7s-6.2,22.3-13.2,32.7
		c-7,10.4-10,6.1-17.1,8.3c-6.8,2.1-11.6,12.7-12.9,15.3"/>
	<path class="st1" d="M82.3,285.4c14-2.3,15.1-8.1,16.7-11.7c3.1-7,3.9-15.3,3.1-17.9c-1.2-4,3.4-6.9,15.3-5.6"/>
	<path class="st1" d="M117.4,202.9c-14.1,21.2-9.3,13.8-30.3,32.1s-7.5,39.4-6.9,48.8"/>
	<path class="st1" d="M80.9,285.2c-2.3-18.7,4.3-33.7,7.4-40.4c3.1-6.7,2.2-5.7,2.6-13.1"/>
	<path class="st1" d="M113.1,190.7c0,0-10.9,14.1-35.8,0s-39.8,36.7-42.3,49.8c-2.4,13.1,2.8,89.8,3.1,99.7"/>
	<path class="st1" d="M113.1,192.5c-23.8,13.3-29.3,3.1-35.8,28.7c-6.5,25.7,7.1,24.2,9.8,36.1c2.3,10.4,4.1,14.2,3.8,20.9
		c-0.1,2.7-8.5,7.6-8.6,7.2"/>
	<path class="st1" d="M68.4,188.2c-13.8,33.6,0.9,16.2-0.6,41.9c-1.5,25.7-1.8,17.7,2.8,33.6s4.8,15.1,9.6,20.1"/>
	<path class="st1" d="M62,209.3c-15.5,16.2-16.8,17.4-17.5,28.2c-0.6,10.9,11.2-0.2,17.4,9.3s1.2,13.8,2.4,26.6
		c1.2,12.8,13.6,10.9,17.9,11.9"/>
	<path class="st0" d="M62.5,206.6c0,0-3-0.9-4,4.9c-0.9,5.8,5.6,1.6,5.5-2.5C64,206,62.5,206.6,62.5,206.6z"/>
	<path class="st0" d="M45,234.9c0,0-3-0.9-4,4.9s5,2.2,5.6-0.8S45,234.9,45,234.9z"/>
	<path class="st0" d="M48.3,202.6c0,0-3-0.9-4,4.9c-0.9,5.8,4.9,0.6,5.5-2.5S48.3,202.6,48.3,202.6z"/>
	<path class="st0" d="M63,262.4c0,0-3,1-0.4,6.3c2.6,5.3,4.3-2.4,3.1-5.2S63,262.4,63,262.4z"/>
	<path class="st0" d="M34.7,271.2c0,0-4,0.9-1.5,6.3c2.5,5.3,4.4-2.3,3.2-5.1C35.1,269.5,34.7,271.2,34.7,271.2z"/>
	<path class="st0" d="M113.6,189.6c0,0,2.4,2.3-0.9,5.6c-3.2,3.3-3.3-4.2-1.6-6C112.8,187.5,113.6,189.6,113.6,189.6z"/>
	<path class="st0" d="M113,117.2c0,0,3.2,0.8,2,5.3c-1.2,4.5-4.9-2-4.4-4.4S113,117.2,113,117.2z"/>
	<path class="st0" d="M130.3,220c0,0,2.7,1.9,0,5.7c-2.7,3.8-3.9-3.6-2.5-5.7S130.3,220,130.3,220z"/>
	<path class="st0" d="M121.4,245.5c0,0,1.3,3-3,4.8c-4.3,1.8-1.4-5.1,0.8-6.1S121.4,245.5,121.4,245.5z"/>
	<path class="st0" d="M92.8,231.1c0,0,0.5,4.5-4.2,5.7c-4.7,1.1,0-7.4,2.4-8.1C93.5,227.9,92.8,231.1,92.8,231.1z"/>
	<path class="st0" d="M111.9,297.8c0,0-0.5,4.5-5.3,4.7s1.5-7.2,4-7.4S111.9,297.8,111.9,297.8z"/>
	<path class="st1" d="M82.3,285.4c4.9,6.1,11.2,15,15.5,15.7c4.3,0.6,9,0.6,12.3-2.1c3.3-2.8,5.5-10.7,6.1-21.7s11.6-11.7,14.3-29.8
		c2.7-18.2-0.2-21.7-0.2-21.7"/>
	<path class="st1" d="M80.9,285.2c1.2,7.9,9.4,10.1,13.4,11c4,0.9,7.3,0.3,11.2,2.8c3.8,2.4,2.5,2.6,4.5,0"/>
	<path class="st2" d="M16.4,341.3"/>
	<path class="st2" d="M53.8,340.9"/>
	<path class="st2" d="M16.4,341.3c3.6-19.8,6.3-45.4,3.8-70.5c-5-49-1.4-60.6,9-77c10.6-16.9,49.9-13.2,71-30
		c13.3-10.6,11.5-25.2,7.2-35c-0.7-1.5-1.5-3-2.5-4.3c0,0-15.3-8.8-14.4-56.8s39.1-46.2,39.1-46.2"/>
	<path class="st2" d="M53.8,340.9c1-17.6-0.8-37.1-3.6-64.5c-6-60,12.3,12.4,12.3,16.4c0,2.4,3.4,22,2.2,48.2"/>
	<path class="st2" d="M53.8,340.9"/>
	<path class="st2" d="M16.4,341.3"/>
	<path class="st2" d="M123.6,291.6c-1.8,5-5,8.3-7.4,10.8c-5,5.5-14.4,7.2-25.3,6.5c-13.6-0.8-20.7-8.3-25.6-14.4
		c-2.3-2.8-4-8.3-4-8.3"/>
	<path class="st1" d="M44.7,238.9c0,0-6.7,8.4-5.9,20.6c0.8,12.2-9.3,31.7-12.5,48.4c-3.2,16.7,2.1,17.1,0.9,25.4"/>
	<path class="st1" d="M34.6,275.7c0,0,1.4,17.3,7,26.5s4.8,8,6.4,18.9"/>
	<path class="st1" d="M48,206.6c-17.6,5.1-18.4,11.2-21.6,19.7s-1.2,20.5,0,37.7s4.4,13,5.6,75.8"/>
	<path class="st2" d="M123.6,291.6"/>
	<g>
		<g>
			<g>
				<g>
					<circle class="st3" cx="84.9" cy="268.8" r="2.6"/>
					<circle class="st3" cx="85.1" cy="271.3" r="0.6"/>
					<circle class="st3" cx="86.5" cy="270.9" r="0.3"/>
					<circle class="st3" cx="84.6" cy="266.2" r="0.6"/>
					<circle class="st3" cx="82.9" cy="270.3" r="0.6"/>
					<circle class="st3" cx="82.7" cy="267.4" r="0.6"/>
					<circle class="st3" cx="87.3" cy="269.7" r="0.6"/>
					<circle class="st3" cx="86.9" cy="267" r="0.6"/>
					<circle class="st3" cx="83.8" cy="271.1" r="0.3"/>
					<circle class="st3" cx="87.6" cy="268.3" r="0.3"/>
					<circle class="st3" cx="85.9" cy="266.3" r="0.3"/>
					<circle class="st3" cx="82.3" cy="268.9" r="0.3"/>
					<circle class="st3" cx="83.4" cy="266.5" r="0.3"/>
				</g>
				<g>
					<circle class="st4" cx="85.2" cy="271.3" r="0.3"/>
					<circle class="st4" cx="87.4" cy="269.9" r="0.3"/>
					<circle class="st4" cx="87" cy="267" r="0.3"/>
					<circle class="st4" cx="84.7" cy="266.2" r="0.3"/>
					<circle class="st4" cx="82.6" cy="270.4" r="0.3"/>
					<circle class="st4" cx="82.4" cy="267.5" r="0.3"/>
					<circle class="st4" cx="85.9" cy="269.1" r="0.3"/>
					<circle class="st4" cx="83.4" cy="268.9" r="0.3"/>
					<circle class="st4" cx="84.1" cy="267.8" r="0.3"/>
					<circle class="st4" cx="86.5" cy="270.9" r="0.1"/>
					<circle class="st4" cx="84.5" cy="269.8" r="0.2"/>
					<circle class="st4" cx="85.7" cy="267.7" r="0.1"/>
					<circle class="st4" cx="83.7" cy="271.3" r="0.1"/>
					<circle class="st4" cx="82.1" cy="268.9" r="0.1"/>
					<circle class="st4" cx="83.5" cy="266.5" r="0.1"/>
					<circle class="st4" cx="85.9" cy="266.2" r="0.1"/>
					<circle class="st4" cx="87.5" cy="268.4" r="0.1"/>
				</g>
			</g>
			<g>
				<g>
					<circle class="st3" cx="77.7" cy="270.5" r="2.6"/>
					<circle class="st3" cx="77.9" cy="273" r="0.6"/>
					<circle class="st3" cx="79.2" cy="272.6" r="0.3"/>
					<circle class="st3" cx="77.3" cy="268" r="0.6"/>
					<circle class="st3" cx="75.6" cy="272" r="0.6"/>
					<circle class="st3" cx="75.5" cy="269.2" r="0.6"/>
					<circle class="st3" cx="80.1" cy="271.5" r="0.6"/>
					<circle class="st3" cx="79.6" cy="268.8" r="0.6"/>
					<circle class="st3" cx="76.5" cy="272.9" r="0.3"/>
					<circle class="st3" cx="80.3" cy="270.1" r="0.3"/>
					<circle class="st3" cx="78.6" cy="268" r="0.3"/>
					<circle class="st3" cx="75" cy="270.6" r="0.3"/>
					<circle class="st3" cx="76.2" cy="268.3" r="0.3"/>
				</g>
				<g>
					<circle class="st4" cx="77.9" cy="273.1" r="0.3"/>
					<circle class="st4" cx="80.1" cy="271.6" r="0.3"/>
					<circle class="st4" cx="79.7" cy="268.7" r="0.3"/>
					<circle class="st4" cx="77.4" cy="268" r="0.3"/>
					<circle class="st4" cx="75.3" cy="272.1" r="0.3"/>
					<circle class="st4" cx="75.2" cy="269.2" r="0.3"/>
					<circle class="st4" cx="78.7" cy="270.8" r="0.3"/>
					<circle class="st4" cx="76.1" cy="270.7" r="0.3"/>
					<circle class="st4" cx="76.8" cy="269.6" r="0.3"/>
					<circle class="st4" cx="79.2" cy="272.7" r="0.1"/>
					<circle class="st4" cx="77.2" cy="271.5" r="0.2"/>
					<circle class="st4" cx="78.4" cy="269.4" r="0.1"/>
					<circle class="st4" cx="76.5" cy="273" r="0.1"/>
					<circle class="st4" cx="74.9" cy="270.6" r="0.1"/>
					<circle class="st4" cx="76.2" cy="268.3" r="0.1"/>
					<circle class="st4" cx="78.6" cy="268" r="0.1"/>
					<circle class="st4" cx="80.3" cy="270.2" r="0.1"/>
				</g>
			</g>
			<g>
				<g>
					<circle class="st3" cx="89.8" cy="271.9" r="2.6"/>
					<circle class="st3" cx="90" cy="274.4" r="0.6"/>
					<circle class="st3" cx="91.4" cy="274" r="0.3"/>
					<circle class="st3" cx="89.5" cy="269.3" r="0.6"/>
					<circle class="st3" cx="87.8" cy="273.4" r="0.6"/>
					<circle class="st3" cx="87.6" cy="270.5" r="0.6"/>
					<circle class="st3" cx="92.2" cy="272.8" r="0.6"/>
					<circle class="st3" cx="91.7" cy="270.1" r="0.6"/>
					<circle class="st3" cx="88.7" cy="274.2" r="0.3"/>
					<circle class="st3" cx="92.5" cy="271.4" r="0.3"/>
					<circle class="st3" cx="90.8" cy="269.4" r="0.3"/>
					<circle class="st3" cx="87.2" cy="272" r="0.3"/>
					<circle class="st3" cx="88.3" cy="269.6" r="0.3"/>
				</g>
				<g>
					<circle class="st4" cx="90.1" cy="274.4" r="0.3"/>
					<circle class="st4" cx="92.3" cy="273" r="0.3"/>
					<circle class="st4" cx="91.9" cy="270.1" r="0.3"/>
					<circle class="st4" cx="89.6" cy="269.3" r="0.3"/>
					<circle class="st4" cx="87.5" cy="273.5" r="0.3"/>
					<circle class="st4" cx="87.3" cy="270.6" r="0.3"/>
					<circle class="st4" cx="90.8" cy="272.2" r="0.3"/>
					<circle class="st4" cx="88.3" cy="272" r="0.3"/>
					<circle class="st4" cx="89" cy="270.9" r="0.3"/>
					<circle class="st4" cx="91.4" cy="274" r="0.1"/>
					<circle class="st4" cx="89.4" cy="272.9" r="0.2"/>
					<circle class="st4" cx="90.6" cy="270.8" r="0.1"/>
					<circle class="st4" cx="88.6" cy="274.4" r="0.1"/>
					<circle class="st4" cx="87" cy="272" r="0.1"/>
					<circle class="st4" cx="88.4" cy="269.6" r="0.1"/>
					<circle class="st4" cx="90.8" cy="269.3" r="0.1"/>
					<circle class="st4" cx="92.4" cy="271.5" r="0.1"/>
				</g>
			</g>
			<g>
				<g>
					<circle class="st3" cx="80.8" cy="273.5" r="2.6"/>
					<circle class="st3" cx="81" cy="276" r="0.6"/>
					<circle class="st3" cx="82.4" cy="275.6" r="0.3"/>
					<circle class="st3" cx="80.5" cy="271" r="0.6"/>
					<circle class="st3" cx="78.8" cy="275" r="0.6"/>
					<circle class="st3" cx="78.6" cy="272.1" r="0.6"/>
					<circle class="st3" cx="83.2" cy="274.5" r="0.6"/>
					<circle class="st3" cx="82.8" cy="271.8" r="0.6"/>
					<circle class="st3" cx="79.7" cy="275.9" r="0.3"/>
					<circle class="st3" cx="83.5" cy="273.1" r="0.3"/>
					<circle class="st3" cx="81.8" cy="271" r="0.3"/>
					<circle class="st3" cx="78.2" cy="273.6" r="0.3"/>
					<circle class="st3" cx="79.3" cy="271.3" r="0.3"/>
				</g>
				<g>
					<circle class="st4" cx="81.1" cy="276.1" r="0.3"/>
					<circle class="st4" cx="83.3" cy="274.6" r="0.3"/>
					<circle class="st4" cx="82.9" cy="271.7" r="0.3"/>
					<circle class="st4" cx="80.6" cy="271" r="0.3"/>
					<circle class="st4" cx="78.5" cy="275.1" r="0.3"/>
					<circle class="st4" cx="78.3" cy="272.2" r="0.3"/>
					<circle class="st4" cx="81.9" cy="273.8" r="0.3"/>
					<circle class="st4" cx="79.3" cy="273.7" r="0.3"/>
					<circle class="st4" cx="80" cy="272.6" r="0.3"/>
					<circle class="st4" cx="82.4" cy="275.6" r="0.1"/>
					<circle class="st4" cx="80.4" cy="274.5" r="0.2"/>
					<circle class="st4" cx="81.6" cy="272.4" r="0.1"/>
					<circle class="st4" cx="79.6" cy="276" r="0.1"/>
					<circle class="st4" cx="78" cy="273.6" r="0.1"/>
					<circle class="st4" cx="79.4" cy="271.3" r="0.1"/>
					<circle class="st4" cx="81.8" cy="271" r="0.1"/>
					<circle class="st4" cx="83.5" cy="273.2" r="0.1"/>
				</g>
			</g>
			<g>
				<g>
					<circle class="st3" cx="86.5" cy="274.5" r="2.6"/>
					<circle class="st3" cx="86.7" cy="277" r="0.6"/>
					<circle class="st3" cx="88.1" cy="276.6" r="0.3"/>
					<circle class="st3" cx="86.2" cy="271.9" r="0.6"/>
					<circle class="st3" cx="84.4" cy="276" r="0.6"/>
					<circle class="st3" cx="84.3" cy="273.1" r="0.6"/>
					<circle class="st3" cx="88.9" cy="275.4" r="0.6"/>
					<circle class="st3" cx="88.4" cy="272.8" r="0.6"/>
					<circle class="st3" cx="85.3" cy="276.9" r="0.3"/>
					<circle class="st3" cx="89.1" cy="274" r="0.3"/>
					<circle class="st3" cx="87.5" cy="272" r="0.3"/>
					<circle class="st3" cx="83.9" cy="274.6" r="0.3"/>
					<circle class="st3" cx="85" cy="272.2" r="0.3"/>
				</g>
				<g>
					<circle class="st4" cx="86.8" cy="277" r="0.3"/>
					<circle class="st4" cx="88.9" cy="275.6" r="0.3"/>
					<circle class="st4" cx="88.5" cy="272.7" r="0.3"/>
					<circle class="st4" cx="86.3" cy="272" r="0.3"/>
					<circle class="st4" cx="84.1" cy="276.1" r="0.3"/>
					<circle class="st4" cx="84" cy="273.2" r="0.3"/>
					<circle class="st4" cx="87.5" cy="274.8" r="0.3"/>
					<circle class="st4" cx="85" cy="274.6" r="0.3"/>
					<circle class="st4" cx="85.7" cy="273.5" r="0.3"/>
					<circle class="st4" cx="88.1" cy="276.6" r="0.1"/>
					<circle class="st4" cx="86.1" cy="275.5" r="0.2"/>
					<circle class="st4" cx="87.2" cy="273.4" r="0.1"/>
					<circle class="st4" cx="85.3" cy="277" r="0.1"/>
					<circle class="st4" cx="83.7" cy="274.6" r="0.1"/>
					<circle class="st4" cx="85" cy="272.2" r="0.1"/>
					<circle class="st4" cx="87.5" cy="271.9" r="0.1"/>
					<circle class="st4" cx="89.1" cy="274.1" r="0.1"/>
				</g>
			</g>
			<g>
				<g>
					<circle class="st3" cx="83.7" cy="271.3" r="2.6"/>
					<circle class="st3" cx="83.9" cy="273.7" r="0.6"/>
					<circle class="st3" cx="85.3" cy="273.3" r="0.3"/>
					<circle class="st3" cx="83.4" cy="268.7" r="0.6"/>
					<circle class="st3" cx="81.6" cy="272.8" r="0.6"/>
					<circle class="st3" cx="81.5" cy="269.9" r="0.6"/>
					<circle class="st3" cx="86.1" cy="272.2" r="0.6"/>
					<circle class="st3" cx="85.6" cy="269.5" r="0.6"/>
					<circle class="st3" cx="82.5" cy="273.6" r="0.3"/>
					<circle class="st3" cx="86.3" cy="270.8" r="0.3"/>
					<circle class="st3" cx="84.7" cy="268.7" r="0.3"/>
					<circle class="st3" cx="81.1" cy="271.4" r="0.3"/>
					<circle class="st3" cx="82.2" cy="269" r="0.3"/>
				</g>
				<g>
					<circle class="st4" cx="84" cy="273.8" r="0.3"/>
					<circle class="st4" cx="86.1" cy="272.3" r="0.3"/>
					<circle class="st4" cx="85.8" cy="269.5" r="0.3"/>
					<circle class="st4" cx="83.5" cy="268.7" r="0.3"/>
					<circle class="st4" cx="81.3" cy="272.8" r="0.3"/>
					<circle class="st4" cx="81.2" cy="270" r="0.3"/>
					<circle class="st4" cx="84.7" cy="271.5" r="0.3"/>
					<circle class="st4" cx="82.2" cy="271.4" r="0.3"/>
					<circle class="st4" cx="82.9" cy="270.3" r="0.3"/>
					<circle class="st4" cx="85.3" cy="273.4" r="0.1"/>
					<circle class="st4" cx="83.3" cy="272.2" r="0.2"/>
					<circle class="st4" cx="84.4" cy="270.1" r="0.1"/>
					<circle class="st4" cx="82.5" cy="273.8" r="0.1"/>
					<circle class="st4" cx="80.9" cy="271.4" r="0.1"/>
					<circle class="st4" cx="82.2" cy="269" r="0.1"/>
					<circle class="st4" cx="84.7" cy="268.7" r="0.1"/>
					<circle class="st4" cx="86.3" cy="270.9" r="0.1"/>
				</g>
			</g>
			<g>
				<g>
					<circle class="st3" cx="74.7" cy="273.8" r="2.6"/>
					<circle class="st3" cx="74.9" cy="276.3" r="0.6"/>
					<circle class="st3" cx="76.2" cy="275.9" r="0.3"/>
					<circle class="st3" cx="74.3" cy="271.3" r="0.6"/>
					<circle class="st3" cx="72.6" cy="275.3" r="0.6"/>
					<circle class="st3" cx="72.5" cy="272.4" r="0.6"/>
					<circle class="st3" cx="77.1" cy="274.8" r="0.6"/>
					<circle class="st3" cx="76.6" cy="272.1" r="0.6"/>
					<circle class="st3" cx="73.5" cy="276.2" r="0.3"/>
					<circle class="st3" cx="77.3" cy="273.4" r="0.3"/>
					<circle class="st3" cx="75.6" cy="271.3" r="0.3"/>
					<circle class="st3" cx="72" cy="273.9" r="0.3"/>
					<circle class="st3" cx="73.2" cy="271.6" r="0.3"/>
				</g>
				<g>
					<circle class="st4" cx="74.9" cy="276.4" r="0.3"/>
					<circle class="st4" cx="77.1" cy="274.9" r="0.3"/>
					<circle class="st4" cx="76.7" cy="272" r="0.3"/>
					<circle class="st4" cx="74.4" cy="271.3" r="0.3"/>
					<circle class="st4" cx="72.3" cy="275.4" r="0.3"/>
					<circle class="st4" cx="72.2" cy="272.5" r="0.3"/>
					<circle class="st4" cx="75.7" cy="274.1" r="0.3"/>
					<circle class="st4" cx="73.1" cy="274" r="0.3"/>
					<circle class="st4" cx="73.8" cy="272.9" r="0.3"/>
					<circle class="st4" cx="76.2" cy="275.9" r="0.1"/>
					<circle class="st4" cx="74.2" cy="274.8" r="0.2"/>
					<circle class="st4" cx="75.4" cy="272.7" r="0.1"/>
					<circle class="st4" cx="73.5" cy="276.3" r="0.1"/>
					<circle class="st4" cx="71.9" cy="273.9" r="0.1"/>
					<circle class="st4" cx="73.2" cy="271.6" r="0.1"/>
					<circle class="st4" cx="75.6" cy="271.3" r="0.1"/>
					<circle class="st4" cx="77.3" cy="273.5" r="0.1"/>
				</g>
			</g>
			<g>
				<g>
					<circle class="st3" cx="87.5" cy="271.3" r="2.6"/>
					<circle class="st3" cx="87.7" cy="273.8" r="0.6"/>
					<circle class="st3" cx="89.1" cy="273.4" r="0.3"/>
					<circle class="st3" cx="87.2" cy="268.8" r="0.6"/>
					<circle class="st3" cx="85.4" cy="272.9" r="0.6"/>
					<circle class="st3" cx="85.3" cy="270" r="0.6"/>
					<circle class="st3" cx="89.9" cy="272.3" r="0.6"/>
					<circle class="st3" cx="89.4" cy="269.6" r="0.6"/>
					<circle class="st3" cx="86.3" cy="273.7" r="0.3"/>
					<circle class="st3" cx="90.1" cy="270.9" r="0.3"/>
					<circle class="st3" cx="88.5" cy="268.8" r="0.3"/>
					<circle class="st3" cx="84.9" cy="271.4" r="0.3"/>
					<circle class="st3" cx="86" cy="269.1" r="0.3"/>
				</g>
				<g>
					<circle class="st4" cx="87.8" cy="273.9" r="0.3"/>
					<circle class="st4" cx="89.9" cy="272.4" r="0.3"/>
					<circle class="st4" cx="89.5" cy="269.6" r="0.3"/>
					<circle class="st4" cx="87.2" cy="268.8" r="0.3"/>
					<circle class="st4" cx="85.1" cy="272.9" r="0.3"/>
					<circle class="st4" cx="85" cy="270" r="0.3"/>
					<circle class="st4" cx="88.5" cy="271.6" r="0.3"/>
					<circle class="st4" cx="86" cy="271.5" r="0.3"/>
					<circle class="st4" cx="86.7" cy="270.4" r="0.3"/>
					<circle class="st4" cx="89.1" cy="273.5" r="0.1"/>
					<circle class="st4" cx="87.1" cy="272.3" r="0.2"/>
					<circle class="st4" cx="88.2" cy="270.2" r="0.1"/>
					<circle class="st4" cx="86.3" cy="273.9" r="0.1"/>
					<circle class="st4" cx="84.7" cy="271.4" r="0.1"/>
					<circle class="st4" cx="86" cy="269.1" r="0.1"/>
					<circle class="st4" cx="88.5" cy="268.8" r="0.1"/>
					<circle class="st4" cx="90.1" cy="271" r="0.1"/>
				</g>
			</g>
			<g>
				<g>
					<circle class="st3" cx="89.8" cy="268.1" r="2.6"/>
					<circle class="st3" cx="90" cy="270.6" r="0.6"/>
					<circle class="st3" cx="91.4" cy="270.2" r="0.3"/>
					<circle class="st3" cx="89.5" cy="265.6" r="0.6"/>
					<circle class="st3" cx="87.7" cy="269.7" r="0.6"/>
					<circle class="st3" cx="87.6" cy="266.8" r="0.6"/>
					<circle class="st3" cx="92.2" cy="269.1" r="0.6"/>
					<circle class="st3" cx="91.7" cy="266.4" r="0.6"/>
					<circle class="st3" cx="88.6" cy="270.5" r="0.3"/>
					<circle class="st3" cx="92.5" cy="267.7" r="0.3"/>
					<circle class="st3" cx="90.8" cy="265.6" r="0.3"/>
					<circle class="st3" cx="87.2" cy="268.2" r="0.3"/>
					<circle class="st3" cx="88.3" cy="265.9" r="0.3"/>
				</g>
				<g>
					<circle class="st4" cx="90.1" cy="270.7" r="0.3"/>
					<circle class="st4" cx="92.3" cy="269.2" r="0.3"/>
					<circle class="st4" cx="91.9" cy="266.4" r="0.3"/>
					<circle class="st4" cx="89.6" cy="265.6" r="0.3"/>
					<circle class="st4" cx="87.4" cy="269.7" r="0.3"/>
					<circle class="st4" cx="87.3" cy="266.8" r="0.3"/>
					<circle class="st4" cx="90.8" cy="268.4" r="0.3"/>
					<circle class="st4" cx="88.3" cy="268.3" r="0.3"/>
					<circle class="st4" cx="89" cy="267.2" r="0.3"/>
					<circle class="st4" cx="91.4" cy="270.3" r="0.1"/>
					<circle class="st4" cx="89.4" cy="269.1" r="0.2"/>
					<circle class="st4" cx="90.6" cy="267" r="0.1"/>
					<circle class="st4" cx="88.6" cy="270.7" r="0.1"/>
					<circle class="st4" cx="87" cy="268.2" r="0.1"/>
					<circle class="st4" cx="88.3" cy="265.9" r="0.1"/>
					<circle class="st4" cx="90.8" cy="265.6" r="0.1"/>
					<circle class="st4" cx="92.4" cy="267.8" r="0.1"/>
				</g>
			</g>
			<g>
				<g>
					<circle class="st3" cx="80.9" cy="267.7" r="2.6"/>
					<circle class="st3" cx="81.1" cy="270.1" r="0.6"/>
					<circle class="st3" cx="82.5" cy="269.7" r="0.3"/>
					<circle class="st3" cx="80.6" cy="265.1" r="0.6"/>
					<circle class="st3" cx="78.8" cy="269.2" r="0.6"/>
					<circle class="st3" cx="78.7" cy="266.3" r="0.6"/>
					<circle class="st3" cx="83.3" cy="268.6" r="0.6"/>
					<circle class="st3" cx="82.8" cy="265.9" r="0.6"/>
					<circle class="st3" cx="79.7" cy="270" r="0.3"/>
					<circle class="st3" cx="83.6" cy="267.2" r="0.3"/>
					<circle class="st3" cx="81.9" cy="265.1" r="0.3"/>
					<circle class="st3" cx="78.3" cy="267.8" r="0.3"/>
					<circle class="st3" cx="79.4" cy="265.4" r="0.3"/>
				</g>
				<g>
					<circle class="st4" cx="81.2" cy="270.2" r="0.3"/>
					<circle class="st4" cx="83.4" cy="268.7" r="0.3"/>
					<circle class="st4" cx="83" cy="265.9" r="0.3"/>
					<circle class="st4" cx="80.7" cy="265.1" r="0.3"/>
					<circle class="st4" cx="78.5" cy="269.2" r="0.3"/>
					<circle class="st4" cx="78.4" cy="266.4" r="0.3"/>
					<circle class="st4" cx="81.9" cy="268" r="0.3"/>
					<circle class="st4" cx="79.4" cy="267.8" r="0.3"/>
					<circle class="st4" cx="80.1" cy="266.7" r="0.3"/>
					<circle class="st4" cx="82.5" cy="269.8" r="0.1"/>
					<circle class="st4" cx="80.5" cy="268.6" r="0.2"/>
					<circle class="st4" cx="81.7" cy="266.5" r="0.1"/>
					<circle class="st4" cx="79.7" cy="270.2" r="0.1"/>
					<circle class="st4" cx="78.1" cy="267.8" r="0.1"/>
					<circle class="st4" cx="79.4" cy="265.4" r="0.1"/>
					<circle class="st4" cx="81.9" cy="265.1" r="0.1"/>
					<circle class="st4" cx="83.5" cy="267.3" r="0.1"/>
				</g>
			</g>
		</g>
		<g>
			<g>
				<g>
					<circle class="st3" cx="92.3" cy="272.7" r="2.6"/>
					<circle class="st3" cx="92.5" cy="275.2" r="0.6"/>
					<circle class="st3" cx="93.8" cy="274.8" r="0.3"/>
					<circle class="st3" cx="91.9" cy="270.2" r="0.6"/>
					<circle class="st3" cx="90.2" cy="274.2" r="0.6"/>
					<circle class="st3" cx="90.1" cy="271.4" r="0.6"/>
					<circle class="st3" cx="94.7" cy="273.7" r="0.6"/>
					<circle class="st3" cx="94.2" cy="271" r="0.6"/>
					<circle class="st3" cx="91.1" cy="275.1" r="0.3"/>
					<circle class="st3" cx="94.9" cy="272.3" r="0.3"/>
					<circle class="st3" cx="93.2" cy="270.2" r="0.3"/>
					<circle class="st3" cx="89.6" cy="272.8" r="0.3"/>
					<circle class="st3" cx="90.7" cy="270.5" r="0.3"/>
				</g>
				<g>
					<circle class="st4" cx="92.5" cy="275.3" r="0.3"/>
					<circle class="st4" cx="94.7" cy="273.8" r="0.3"/>
					<circle class="st4" cx="94.3" cy="270.9" r="0.3"/>
					<circle class="st4" cx="92" cy="270.2" r="0.3"/>
					<circle class="st4" cx="89.9" cy="274.3" r="0.3"/>
					<circle class="st4" cx="89.8" cy="271.4" r="0.3"/>
					<circle class="st4" cx="93.3" cy="273" r="0.3"/>
					<circle class="st4" cx="90.7" cy="272.9" r="0.3"/>
					<circle class="st4" cx="91.4" cy="271.8" r="0.3"/>
					<circle class="st4" cx="93.8" cy="274.9" r="0.1"/>
					<circle class="st4" cx="91.8" cy="273.7" r="0.2"/>
					<circle class="st4" cx="93" cy="271.6" r="0.1"/>
					<circle class="st4" cx="91" cy="275.2" r="0.1"/>
					<circle class="st4" cx="89.4" cy="272.8" r="0.1"/>
					<circle class="st4" cx="90.8" cy="270.5" r="0.1"/>
					<circle class="st4" cx="93.2" cy="270.2" r="0.1"/>
					<circle class="st4" cx="94.9" cy="272.4" r="0.1"/>
				</g>
			</g>
			<g>
				<g>
					<circle class="st3" cx="85" cy="274.5" r="2.6"/>
					<circle class="st3" cx="85.2" cy="276.9" r="0.6"/>
					<circle class="st3" cx="86.6" cy="276.5" r="0.3"/>
					<circle class="st3" cx="84.7" cy="271.9" r="0.6"/>
					<circle class="st3" cx="82.9" cy="276" r="0.6"/>
					<circle class="st3" cx="82.8" cy="273.1" r="0.6"/>
					<circle class="st3" cx="87.4" cy="275.4" r="0.6"/>
					<circle class="st3" cx="86.9" cy="272.7" r="0.6"/>
					<circle class="st3" cx="83.8" cy="276.8" r="0.3"/>
					<circle class="st3" cx="87.6" cy="274" r="0.3"/>
					<circle class="st3" cx="86" cy="271.9" r="0.3"/>
					<circle class="st3" cx="82.4" cy="274.6" r="0.3"/>
					<circle class="st3" cx="83.5" cy="272.2" r="0.3"/>
				</g>
				<g>
					<circle class="st4" cx="85.3" cy="277" r="0.3"/>
					<circle class="st4" cx="87.4" cy="275.5" r="0.3"/>
					<circle class="st4" cx="87.1" cy="272.7" r="0.3"/>
					<circle class="st4" cx="84.8" cy="271.9" r="0.3"/>
					<circle class="st4" cx="82.6" cy="276" r="0.3"/>
					<circle class="st4" cx="82.5" cy="273.2" r="0.3"/>
					<circle class="st4" cx="86" cy="274.8" r="0.3"/>
					<circle class="st4" cx="83.5" cy="274.6" r="0.3"/>
					<circle class="st4" cx="84.2" cy="273.5" r="0.3"/>
					<circle class="st4" cx="86.6" cy="276.6" r="0.1"/>
					<circle class="st4" cx="84.6" cy="275.4" r="0.2"/>
					<circle class="st4" cx="85.8" cy="273.3" r="0.1"/>
					<circle class="st4" cx="83.8" cy="277" r="0.1"/>
					<circle class="st4" cx="82.2" cy="274.6" r="0.1"/>
					<circle class="st4" cx="83.5" cy="272.2" r="0.1"/>
					<circle class="st4" cx="86" cy="271.9" r="0.1"/>
					<circle class="st4" cx="87.6" cy="274.1" r="0.1"/>
				</g>
			</g>
			<g>
				<g>
					<circle class="st3" cx="97.2" cy="275.8" r="2.6"/>
					<circle class="st3" cx="97.4" cy="278.3" r="0.6"/>
					<circle class="st3" cx="98.7" cy="277.9" r="0.3"/>
					<circle class="st3" cx="96.8" cy="273.3" r="0.6"/>
					<circle class="st3" cx="95.1" cy="277.3" r="0.6"/>
					<circle class="st3" cx="95" cy="274.4" r="0.6"/>
					<circle class="st3" cx="99.6" cy="276.8" r="0.6"/>
					<circle class="st3" cx="99.1" cy="274.1" r="0.6"/>
					<circle class="st3" cx="96" cy="278.2" r="0.3"/>
					<circle class="st3" cx="99.8" cy="275.4" r="0.3"/>
					<circle class="st3" cx="98.1" cy="273.3" r="0.3"/>
					<circle class="st3" cx="94.5" cy="275.9" r="0.3"/>
					<circle class="st3" cx="95.6" cy="273.6" r="0.3"/>
				</g>
				<g>
					<circle class="st4" cx="97.4" cy="278.4" r="0.3"/>
					<circle class="st4" cx="99.6" cy="276.9" r="0.3"/>
					<circle class="st4" cx="99.2" cy="274" r="0.3"/>
					<circle class="st4" cx="96.9" cy="273.3" r="0.3"/>
					<circle class="st4" cx="94.8" cy="277.4" r="0.3"/>
					<circle class="st4" cx="94.7" cy="274.5" r="0.3"/>
					<circle class="st4" cx="98.2" cy="276.1" r="0.3"/>
					<circle class="st4" cx="95.6" cy="276" r="0.3"/>
					<circle class="st4" cx="96.3" cy="274.9" r="0.3"/>
					<circle class="st4" cx="98.7" cy="277.9" r="0.1"/>
					<circle class="st4" cx="96.7" cy="276.8" r="0.2"/>
					<circle class="st4" cx="97.9" cy="274.7" r="0.1"/>
					<circle class="st4" cx="95.9" cy="278.3" r="0.1"/>
					<circle class="st4" cx="94.3" cy="275.9" r="0.1"/>
					<circle class="st4" cx="95.7" cy="273.6" r="0.1"/>
					<circle class="st4" cx="98.1" cy="273.3" r="0.1"/>
					<circle class="st4" cx="99.8" cy="275.5" r="0.1"/>
				</g>
			</g>
			<g>
				<g>
					<circle class="st3" cx="88.2" cy="277.4" r="2.6"/>
					<circle class="st3" cx="88.4" cy="279.9" r="0.6"/>
					<circle class="st3" cx="89.7" cy="279.5" r="0.3"/>
					<circle class="st3" cx="87.8" cy="274.9" r="0.6"/>
					<circle class="st3" cx="86.1" cy="279" r="0.6"/>
					<circle class="st3" cx="86" cy="276.1" r="0.6"/>
					<circle class="st3" cx="90.6" cy="278.4" r="0.6"/>
					<circle class="st3" cx="90.1" cy="275.7" r="0.6"/>
					<circle class="st3" cx="87" cy="279.8" r="0.3"/>
					<circle class="st3" cx="90.8" cy="277" r="0.3"/>
					<circle class="st3" cx="89.1" cy="274.9" r="0.3"/>
					<circle class="st3" cx="85.5" cy="277.5" r="0.3"/>
					<circle class="st3" cx="86.7" cy="275.2" r="0.3"/>
				</g>
				<g>
					<circle class="st4" cx="88.4" cy="280" r="0.3"/>
					<circle class="st4" cx="90.6" cy="278.5" r="0.3"/>
					<circle class="st4" cx="90.2" cy="275.7" r="0.3"/>
					<circle class="st4" cx="87.9" cy="274.9" r="0.3"/>
					<circle class="st4" cx="85.8" cy="279" r="0.3"/>
					<circle class="st4" cx="85.7" cy="276.1" r="0.3"/>
					<circle class="st4" cx="89.2" cy="277.7" r="0.3"/>
					<circle class="st4" cx="86.6" cy="277.6" r="0.3"/>
					<circle class="st4" cx="87.3" cy="276.5" r="0.3"/>
					<circle class="st4" cx="89.8" cy="279.6" r="0.1"/>
					<circle class="st4" cx="87.7" cy="278.4" r="0.2"/>
					<circle class="st4" cx="88.9" cy="276.3" r="0.1"/>
					<circle class="st4" cx="87" cy="280" r="0.1"/>
					<circle class="st4" cx="85.4" cy="277.5" r="0.1"/>
					<circle class="st4" cx="86.7" cy="275.2" r="0.1"/>
					<circle class="st4" cx="89.1" cy="274.9" r="0.1"/>
					<circle class="st4" cx="90.8" cy="277.1" r="0.1"/>
				</g>
			</g>
			<g>
				<g>
					<circle class="st3" cx="93.8" cy="278.4" r="2.6"/>
					<circle class="st3" cx="94" cy="280.9" r="0.6"/>
					<circle class="st3" cx="95.4" cy="280.5" r="0.3"/>
					<circle class="st3" cx="93.5" cy="275.9" r="0.6"/>
					<circle class="st3" cx="91.8" cy="280" r="0.6"/>
					<circle class="st3" cx="91.6" cy="277.1" r="0.6"/>
					<circle class="st3" cx="96.2" cy="279.4" r="0.6"/>
					<circle class="st3" cx="95.7" cy="276.7" r="0.6"/>
					<circle class="st3" cx="92.7" cy="280.8" r="0.3"/>
					<circle class="st3" cx="96.5" cy="278" r="0.3"/>
					<circle class="st3" cx="94.8" cy="275.9" r="0.3"/>
					<circle class="st3" cx="91.2" cy="278.5" r="0.3"/>
					<circle class="st3" cx="92.3" cy="276.2" r="0.3"/>
				</g>
				<g>
					<circle class="st4" cx="94.1" cy="281" r="0.3"/>
					<circle class="st4" cx="96.3" cy="279.5" r="0.3"/>
					<circle class="st4" cx="95.9" cy="276.7" r="0.3"/>
					<circle class="st4" cx="93.6" cy="275.9" r="0.3"/>
					<circle class="st4" cx="91.5" cy="280" r="0.3"/>
					<circle class="st4" cx="91.3" cy="277.1" r="0.3"/>
					<circle class="st4" cx="94.8" cy="278.7" r="0.3"/>
					<circle class="st4" cx="92.3" cy="278.6" r="0.3"/>
					<circle class="st4" cx="93" cy="277.5" r="0.3"/>
					<circle class="st4" cx="95.4" cy="280.6" r="0.1"/>
					<circle class="st4" cx="93.4" cy="279.4" r="0.2"/>
					<circle class="st4" cx="94.6" cy="277.3" r="0.1"/>
					<circle class="st4" cx="92.6" cy="281" r="0.1"/>
					<circle class="st4" cx="91" cy="278.5" r="0.1"/>
					<circle class="st4" cx="92.4" cy="276.2" r="0.1"/>
					<circle class="st4" cx="94.8" cy="275.9" r="0.1"/>
					<circle class="st4" cx="96.4" cy="278.1" r="0.1"/>
				</g>
			</g>
			<g>
				<g>
					<circle class="st3" cx="91" cy="275.2" r="2.6"/>
					<circle class="st3" cx="91.2" cy="277.7" r="0.6"/>
					<circle class="st3" cx="92.6" cy="277.3" r="0.3"/>
					<circle class="st3" cx="90.7" cy="272.6" r="0.6"/>
					<circle class="st3" cx="89" cy="276.7" r="0.6"/>
					<circle class="st3" cx="88.8" cy="273.8" r="0.6"/>
					<circle class="st3" cx="93.4" cy="276.1" r="0.6"/>
					<circle class="st3" cx="92.9" cy="273.4" r="0.6"/>
					<circle class="st3" cx="89.9" cy="277.5" r="0.3"/>
					<circle class="st3" cx="93.7" cy="274.7" r="0.3"/>
					<circle class="st3" cx="92" cy="272.7" r="0.3"/>
					<circle class="st3" cx="88.4" cy="275.3" r="0.3"/>
					<circle class="st3" cx="89.5" cy="272.9" r="0.3"/>
				</g>
				<g>
					<circle class="st4" cx="91.3" cy="277.7" r="0.3"/>
					<circle class="st4" cx="93.5" cy="276.3" r="0.3"/>
					<circle class="st4" cx="93.1" cy="273.4" r="0.3"/>
					<circle class="st4" cx="90.8" cy="272.6" r="0.3"/>
					<circle class="st4" cx="88.7" cy="276.8" r="0.3"/>
					<circle class="st4" cx="88.5" cy="273.9" r="0.3"/>
					<circle class="st4" cx="92" cy="275.5" r="0.3"/>
					<circle class="st4" cx="89.5" cy="275.3" r="0.3"/>
					<circle class="st4" cx="90.2" cy="274.2" r="0.3"/>
					<circle class="st4" cx="92.6" cy="277.3" r="0.1"/>
					<circle class="st4" cx="90.6" cy="276.2" r="0.2"/>
					<circle class="st4" cx="91.8" cy="274.1" r="0.1"/>
					<circle class="st4" cx="89.8" cy="277.7" r="0.1"/>
					<circle class="st4" cx="88.2" cy="275.3" r="0.1"/>
					<circle class="st4" cx="89.6" cy="272.9" r="0.1"/>
					<circle class="st4" cx="92" cy="272.6" r="0.1"/>
					<circle class="st4" cx="93.6" cy="274.8" r="0.1"/>
				</g>
			</g>
			<g>
				<g>
					<circle class="st3" cx="82" cy="277.7" r="2.6"/>
					<circle class="st3" cx="82.2" cy="280.2" r="0.6"/>
					<circle class="st3" cx="83.6" cy="279.8" r="0.3"/>
					<circle class="st3" cx="81.7" cy="275.2" r="0.6"/>
					<circle class="st3" cx="79.9" cy="279.3" r="0.6"/>
					<circle class="st3" cx="79.8" cy="276.4" r="0.6"/>
					<circle class="st3" cx="84.4" cy="278.7" r="0.6"/>
					<circle class="st3" cx="83.9" cy="276" r="0.6"/>
					<circle class="st3" cx="80.8" cy="280.1" r="0.3"/>
					<circle class="st3" cx="84.6" cy="277.3" r="0.3"/>
					<circle class="st3" cx="83" cy="275.2" r="0.3"/>
					<circle class="st3" cx="79.4" cy="277.8" r="0.3"/>
					<circle class="st3" cx="80.5" cy="275.5" r="0.3"/>
				</g>
				<g>
					<circle class="st4" cx="82.3" cy="280.3" r="0.3"/>
					<circle class="st4" cx="84.4" cy="278.8" r="0.3"/>
					<circle class="st4" cx="84.1" cy="276" r="0.3"/>
					<circle class="st4" cx="81.8" cy="275.2" r="0.3"/>
					<circle class="st4" cx="79.6" cy="279.3" r="0.3"/>
					<circle class="st4" cx="79.5" cy="276.4" r="0.3"/>
					<circle class="st4" cx="83" cy="278" r="0.3"/>
					<circle class="st4" cx="80.5" cy="277.9" r="0.3"/>
					<circle class="st4" cx="81.2" cy="276.8" r="0.3"/>
					<circle class="st4" cx="83.6" cy="279.9" r="0.1"/>
					<circle class="st4" cx="81.6" cy="278.7" r="0.2"/>
					<circle class="st4" cx="82.8" cy="276.6" r="0.1"/>
					<circle class="st4" cx="80.8" cy="280.3" r="0.1"/>
					<circle class="st4" cx="79.2" cy="277.8" r="0.1"/>
					<circle class="st4" cx="80.5" cy="275.5" r="0.1"/>
					<circle class="st4" cx="83" cy="275.2" r="0.1"/>
					<circle class="st4" cx="84.6" cy="277.4" r="0.1"/>
				</g>
			</g>
			<g>
				<g>
					<circle class="st3" cx="94.8" cy="275.3" r="2.6"/>
					<circle class="st3" cx="95" cy="277.8" r="0.6"/>
					<circle class="st3" cx="96.4" cy="277.4" r="0.3"/>
					<circle class="st3" cx="94.5" cy="272.7" r="0.6"/>
					<circle class="st3" cx="92.8" cy="276.8" r="0.6"/>
					<circle class="st3" cx="92.6" cy="273.9" r="0.6"/>
					<circle class="st3" cx="97.2" cy="276.2" r="0.6"/>
					<circle class="st3" cx="96.7" cy="273.5" r="0.6"/>
					<circle class="st3" cx="93.7" cy="277.6" r="0.3"/>
					<circle class="st3" cx="97.5" cy="274.8" r="0.3"/>
					<circle class="st3" cx="95.8" cy="272.8" r="0.3"/>
					<circle class="st3" cx="92.2" cy="275.4" r="0.3"/>
					<circle class="st3" cx="93.3" cy="273" r="0.3"/>
				</g>
				<g>
					<circle class="st4" cx="95.1" cy="277.8" r="0.3"/>
					<circle class="st4" cx="97.3" cy="276.4" r="0.3"/>
					<circle class="st4" cx="96.9" cy="273.5" r="0.3"/>
					<circle class="st4" cx="94.6" cy="272.7" r="0.3"/>
					<circle class="st4" cx="92.5" cy="276.9" r="0.3"/>
					<circle class="st4" cx="92.3" cy="274" r="0.3"/>
					<circle class="st4" cx="95.8" cy="275.6" r="0.3"/>
					<circle class="st4" cx="93.3" cy="275.4" r="0.3"/>
					<circle class="st4" cx="94" cy="274.3" r="0.3"/>
					<circle class="st4" cx="96.4" cy="277.4" r="0.1"/>
					<circle class="st4" cx="94.4" cy="276.3" r="0.2"/>
					<circle class="st4" cx="95.6" cy="274.2" r="0.1"/>
					<circle class="st4" cx="93.6" cy="277.8" r="0.1"/>
					<circle class="st4" cx="92" cy="275.4" r="0.1"/>
					<circle class="st4" cx="93.4" cy="273" r="0.1"/>
					<circle class="st4" cx="95.8" cy="272.7" r="0.1"/>
					<circle class="st4" cx="97.4" cy="274.9" r="0.1"/>
				</g>
			</g>
			<g>
				<g>
					<circle class="st3" cx="97.1" cy="272.1" r="2.6"/>
					<circle class="st3" cx="97.3" cy="274.5" r="0.6"/>
					<circle class="st3" cx="98.7" cy="274.2" r="0.3"/>
					<circle class="st3" cx="96.8" cy="269.5" r="0.6"/>
					<circle class="st3" cx="95.1" cy="273.6" r="0.6"/>
					<circle class="st3" cx="94.9" cy="270.7" r="0.6"/>
					<circle class="st3" cx="99.5" cy="273" r="0.6"/>
					<circle class="st3" cx="99.1" cy="270.3" r="0.6"/>
					<circle class="st3" cx="96" cy="274.4" r="0.3"/>
					<circle class="st3" cx="99.8" cy="271.6" r="0.3"/>
					<circle class="st3" cx="98.1" cy="269.6" r="0.3"/>
					<circle class="st3" cx="94.5" cy="272.2" r="0.3"/>
					<circle class="st3" cx="95.6" cy="269.8" r="0.3"/>
				</g>
				<g>
					<circle class="st4" cx="97.4" cy="274.6" r="0.3"/>
					<circle class="st4" cx="99.6" cy="273.2" r="0.3"/>
					<circle class="st4" cx="99.2" cy="270.3" r="0.3"/>
					<circle class="st4" cx="96.9" cy="269.5" r="0.3"/>
					<circle class="st4" cx="94.8" cy="273.7" r="0.3"/>
					<circle class="st4" cx="94.6" cy="270.8" r="0.3"/>
					<circle class="st4" cx="98.2" cy="272.4" r="0.3"/>
					<circle class="st4" cx="95.6" cy="272.2" r="0.3"/>
					<circle class="st4" cx="96.3" cy="271.1" r="0.3"/>
					<circle class="st4" cx="98.7" cy="274.2" r="0.1"/>
					<circle class="st4" cx="96.7" cy="273.1" r="0.2"/>
					<circle class="st4" cx="97.9" cy="271" r="0.1"/>
					<circle class="st4" cx="95.9" cy="274.6" r="0.1"/>
					<circle class="st4" cx="94.3" cy="272.2" r="0.1"/>
					<circle class="st4" cx="95.7" cy="269.8" r="0.1"/>
					<circle class="st4" cx="98.1" cy="269.5" r="0.1"/>
					<circle class="st4" cx="99.7" cy="271.7" r="0.1"/>
				</g>
			</g>
			<g>
				<g>
					<circle class="st3" cx="88.2" cy="271.6" r="2.6"/>
					<circle class="st3" cx="88.4" cy="274.1" r="0.6"/>
					<circle class="st3" cx="89.8" cy="273.7" r="0.3"/>
					<circle class="st3" cx="87.9" cy="269" r="0.6"/>
					<circle class="st3" cx="86.2" cy="273.1" r="0.6"/>
					<circle class="st3" cx="86" cy="270.2" r="0.6"/>
					<circle class="st3" cx="90.6" cy="272.5" r="0.6"/>
					<circle class="st3" cx="90.2" cy="269.9" r="0.6"/>
					<circle class="st3" cx="87.1" cy="274" r="0.3"/>
					<circle class="st3" cx="90.9" cy="271.1" r="0.3"/>
					<circle class="st3" cx="89.2" cy="269.1" r="0.3"/>
					<circle class="st3" cx="85.6" cy="271.7" r="0.3"/>
					<circle class="st3" cx="86.7" cy="269.3" r="0.3"/>
				</g>
				<g>
					<circle class="st4" cx="88.5" cy="274.1" r="0.3"/>
					<circle class="st4" cx="90.7" cy="272.7" r="0.3"/>
					<circle class="st4" cx="90.3" cy="269.8" r="0.3"/>
					<circle class="st4" cx="88" cy="269" r="0.3"/>
					<circle class="st4" cx="85.9" cy="273.2" r="0.3"/>
					<circle class="st4" cx="85.7" cy="270.3" r="0.3"/>
					<circle class="st4" cx="89.3" cy="271.9" r="0.3"/>
					<circle class="st4" cx="86.7" cy="271.7" r="0.3"/>
					<circle class="st4" cx="87.4" cy="270.6" r="0.3"/>
					<circle class="st4" cx="89.8" cy="273.7" r="0.1"/>
					<circle class="st4" cx="87.8" cy="272.6" r="0.2"/>
					<circle class="st4" cx="89" cy="270.5" r="0.1"/>
					<circle class="st4" cx="87" cy="274.1" r="0.1"/>
					<circle class="st4" cx="85.4" cy="271.7" r="0.1"/>
					<circle class="st4" cx="86.8" cy="269.3" r="0.1"/>
					<circle class="st4" cx="89.2" cy="269" r="0.1"/>
					<circle class="st4" cx="90.8" cy="271.2" r="0.1"/>
				</g>
			</g>
		</g>
		<g>
			<g>
				<circle class="st3" cx="78.2" cy="276.6" r="2.6"/>
				<circle class="st3" cx="78.4" cy="279.1" r="0.6"/>
				<circle class="st3" cx="79.7" cy="278.7" r="0.3"/>
				<circle class="st3" cx="77.8" cy="274.1" r="0.6"/>
				<circle class="st3" cx="76.1" cy="278.2" r="0.6"/>
				<circle class="st3" cx="76" cy="275.3" r="0.6"/>
				<circle class="st3" cx="80.6" cy="277.6" r="0.6"/>
				<circle class="st3" cx="80.1" cy="274.9" r="0.6"/>
				<circle class="st3" cx="77" cy="279" r="0.3"/>
				<circle class="st3" cx="80.8" cy="276.2" r="0.3"/>
				<circle class="st3" cx="79.1" cy="274.1" r="0.3"/>
				<circle class="st3" cx="75.5" cy="276.7" r="0.3"/>
				<circle class="st3" cx="76.6" cy="274.4" r="0.3"/>
			</g>
			<g>
				<circle class="st4" cx="78.4" cy="279.2" r="0.3"/>
				<circle class="st4" cx="80.6" cy="277.7" r="0.3"/>
				<circle class="st4" cx="80.2" cy="274.9" r="0.3"/>
				<circle class="st4" cx="77.9" cy="274.1" r="0.3"/>
				<circle class="st4" cx="75.8" cy="278.2" r="0.3"/>
				<circle class="st4" cx="75.7" cy="275.3" r="0.3"/>
				<circle class="st4" cx="79.2" cy="276.9" r="0.3"/>
				<circle class="st4" cx="76.6" cy="276.8" r="0.3"/>
				<circle class="st4" cx="77.3" cy="275.7" r="0.3"/>
				<circle class="st4" cx="79.7" cy="278.8" r="0.1"/>
				<circle class="st4" cx="77.7" cy="277.6" r="0.2"/>
				<circle class="st4" cx="78.9" cy="275.5" r="0.1"/>
				<circle class="st4" cx="76.9" cy="279.2" r="0.1"/>
				<circle class="st4" cx="75.3" cy="276.7" r="0.1"/>
				<circle class="st4" cx="76.7" cy="274.4" r="0.1"/>
				<circle class="st4" cx="79.1" cy="274.1" r="0.1"/>
				<circle class="st4" cx="80.8" cy="276.3" r="0.1"/>
			</g>
		</g>
	</g>
	<g>
		<g>
			<circle class="st5" cx="88.4" cy="232" r="2.6"/>
			<circle class="st5" cx="88.6" cy="234.5" r="0.6"/>
			<circle class="st5" cx="90" cy="234.1" r="0.3"/>
			<circle class="st5" cx="88.1" cy="229.5" r="0.6"/>
			<circle class="st5" cx="86.3" cy="233.5" r="0.6"/>
			<circle class="st5" cx="86.2" cy="230.6" r="0.6"/>
			<circle class="st5" cx="90.8" cy="232.9" r="0.6"/>
			<circle class="st5" cx="90.3" cy="230.3" r="0.6"/>
			<circle class="st5" cx="87.2" cy="234.4" r="0.3"/>
			<circle class="st5" cx="91" cy="231.6" r="0.3"/>
			<circle class="st5" cx="89.4" cy="229.5" r="0.3"/>
			<circle class="st5" cx="85.8" cy="232.1" r="0.3"/>
			<circle class="st5" cx="86.9" cy="229.7" r="0.3"/>
		</g>
		<g>
			<circle class="st6" cx="88.7" cy="234.7" r="0.3"/>
			<circle class="st6" cx="90.8" cy="233.2" r="0.3"/>
			<circle class="st6" cx="90.5" cy="230.3" r="0.3"/>
			<circle class="st6" cx="88.2" cy="229.6" r="0.3"/>
			<circle class="st6" cx="86" cy="233.7" r="0.3"/>
			<circle class="st6" cx="85.9" cy="230.8" r="0.3"/>
			<circle class="st6" cx="89.4" cy="232.4" r="0.3"/>
			<circle class="st6" cx="86.9" cy="232.3" r="0.3"/>
			<circle class="st6" cx="87.6" cy="231.2" r="0.3"/>
			<circle class="st6" cx="90" cy="234.2" r="0.1"/>
			<circle class="st6" cx="88" cy="233.1" r="0.2"/>
			<circle class="st6" cx="89.2" cy="231" r="0.1"/>
			<circle class="st6" cx="87.2" cy="234.6" r="0.1"/>
			<circle class="st6" cx="85.6" cy="232.2" r="0.1"/>
			<circle class="st6" cx="86.9" cy="229.8" r="0.1"/>
			<circle class="st6" cx="89.4" cy="229.5" r="0.1"/>
			<circle class="st6" cx="91" cy="231.8" r="0.1"/>
		</g>
	</g>
	<g>
		<g>
			<circle class="st5" cx="93.4" cy="229.4" r="2.6"/>
			<circle class="st5" cx="93.6" cy="231.9" r="0.6"/>
			<circle class="st5" cx="94.9" cy="231.5" r="0.3"/>
			<circle class="st5" cx="93" cy="226.9" r="0.6"/>
			<circle class="st5" cx="91.3" cy="230.9" r="0.6"/>
			<circle class="st5" cx="91.2" cy="228" r="0.6"/>
			<circle class="st5" cx="95.8" cy="230.4" r="0.6"/>
			<circle class="st5" cx="95.3" cy="227.7" r="0.6"/>
			<circle class="st5" cx="92.2" cy="231.8" r="0.3"/>
			<circle class="st5" cx="96" cy="229" r="0.3"/>
			<circle class="st5" cx="94.3" cy="226.9" r="0.3"/>
			<circle class="st5" cx="90.7" cy="229.5" r="0.3"/>
			<circle class="st5" cx="91.8" cy="227.2" r="0.3"/>
		</g>
		<g>
			<circle class="st6" cx="93.6" cy="232.1" r="0.3"/>
			<circle class="st6" cx="95.8" cy="230.6" r="0.3"/>
			<circle class="st6" cx="95.4" cy="227.7" r="0.3"/>
			<circle class="st6" cx="93.1" cy="227" r="0.3"/>
			<circle class="st6" cx="91" cy="231.1" r="0.3"/>
			<circle class="st6" cx="90.9" cy="228.2" r="0.3"/>
			<circle class="st6" cx="94.4" cy="229.8" r="0.3"/>
			<circle class="st6" cx="91.8" cy="229.7" r="0.3"/>
			<circle class="st6" cx="92.5" cy="228.6" r="0.3"/>
			<circle class="st6" cx="94.9" cy="231.6" r="0.1"/>
			<circle class="st6" cx="92.9" cy="230.5" r="0.2"/>
			<circle class="st6" cx="94.1" cy="228.4" r="0.1"/>
			<circle class="st6" cx="92.2" cy="232" r="0.1"/>
			<circle class="st6" cx="90.6" cy="229.6" r="0.1"/>
			<circle class="st6" cx="91.9" cy="227.2" r="0.1"/>
			<circle class="st6" cx="94.3" cy="227" r="0.1"/>
			<circle class="st6" cx="96" cy="229.2" r="0.1"/>
		</g>
	</g>
	<g>
		<g>
			<circle class="st5" cx="91.7" cy="234.5" r="2.6"/>
			<circle class="st5" cx="91.9" cy="237" r="0.6"/>
			<circle class="st5" cx="93.3" cy="236.6" r="0.3"/>
			<circle class="st5" cx="91.4" cy="232" r="0.6"/>
			<circle class="st5" cx="89.6" cy="236" r="0.6"/>
			<circle class="st5" cx="89.5" cy="233.2" r="0.6"/>
			<circle class="st5" cx="94.1" cy="235.5" r="0.6"/>
			<circle class="st5" cx="93.6" cy="232.8" r="0.6"/>
			<circle class="st5" cx="90.6" cy="236.9" r="0.3"/>
			<circle class="st5" cx="94.4" cy="234.1" r="0.3"/>
			<circle class="st5" cx="92.7" cy="232" r="0.3"/>
			<circle class="st5" cx="89.1" cy="234.6" r="0.3"/>
			<circle class="st5" cx="90.2" cy="232.3" r="0.3"/>
		</g>
		<g>
			<circle class="st6" cx="92" cy="237.2" r="0.3"/>
			<circle class="st6" cx="94.2" cy="235.7" r="0.3"/>
			<circle class="st6" cx="93.8" cy="232.8" r="0.3"/>
			<circle class="st6" cx="91.5" cy="232.1" r="0.3"/>
			<circle class="st6" cx="89.4" cy="236.2" r="0.3"/>
			<circle class="st6" cx="89.2" cy="233.3" r="0.3"/>
			<circle class="st6" cx="92.7" cy="234.9" r="0.3"/>
			<circle class="st6" cx="90.2" cy="234.8" r="0.3"/>
			<circle class="st6" cx="90.9" cy="233.7" r="0.3"/>
			<circle class="st6" cx="93.3" cy="236.7" r="0.1"/>
			<circle class="st6" cx="91.3" cy="235.6" r="0.2"/>
			<circle class="st6" cx="92.5" cy="233.5" r="0.1"/>
			<circle class="st6" cx="90.5" cy="237.1" r="0.1"/>
			<circle class="st6" cx="88.9" cy="234.7" r="0.1"/>
			<circle class="st6" cx="90.3" cy="232.4" r="0.1"/>
			<circle class="st6" cx="92.7" cy="232.1" r="0.1"/>
			<circle class="st6" cx="94.3" cy="234.3" r="0.1"/>
		</g>
	</g>
	<g>
		<g>
			<circle class="st5" cx="92" cy="231.9" r="2.6"/>
			<circle class="st5" cx="92.2" cy="234.4" r="0.6"/>
			<circle class="st5" cx="93.5" cy="234" r="0.3"/>
			<circle class="st5" cx="91.7" cy="229.4" r="0.6"/>
			<circle class="st5" cx="89.9" cy="233.5" r="0.6"/>
			<circle class="st5" cx="89.8" cy="230.6" r="0.6"/>
			<circle class="st5" cx="94.4" cy="232.9" r="0.6"/>
			<circle class="st5" cx="93.9" cy="230.2" r="0.6"/>
			<circle class="st5" cx="90.8" cy="234.3" r="0.3"/>
			<circle class="st5" cx="94.6" cy="231.5" r="0.3"/>
			<circle class="st5" cx="92.9" cy="229.4" r="0.3"/>
			<circle class="st5" cx="89.3" cy="232" r="0.3"/>
			<circle class="st5" cx="90.5" cy="229.7" r="0.3"/>
		</g>
		<g>
			<circle class="st6" cx="92.2" cy="234.6" r="0.3"/>
			<circle class="st6" cx="94.4" cy="233.1" r="0.3"/>
			<circle class="st6" cx="94" cy="230.3" r="0.3"/>
			<circle class="st6" cx="91.7" cy="229.5" r="0.3"/>
			<circle class="st6" cx="89.6" cy="233.6" r="0.3"/>
			<circle class="st6" cx="89.5" cy="230.7" r="0.3"/>
			<circle class="st6" cx="93" cy="232.3" r="0.3"/>
			<circle class="st6" cx="90.5" cy="232.2" r="0.3"/>
			<circle class="st6" cx="91.2" cy="231.1" r="0.3"/>
			<circle class="st6" cx="93.6" cy="234.2" r="0.1"/>
			<circle class="st6" cx="91.6" cy="233" r="0.2"/>
			<circle class="st6" cx="92.7" cy="230.9" r="0.1"/>
			<circle class="st6" cx="90.8" cy="234.6" r="0.1"/>
			<circle class="st6" cx="89.2" cy="232.1" r="0.1"/>
			<circle class="st6" cx="90.5" cy="229.8" r="0.1"/>
			<circle class="st6" cx="93" cy="229.5" r="0.1"/>
			<circle class="st6" cx="94.6" cy="231.7" r="0.1"/>
		</g>
	</g>
	<g>
		<g>
			<circle class="st5" cx="96.4" cy="231" r="2.6"/>
			<circle class="st5" cx="96.6" cy="233.5" r="0.6"/>
			<circle class="st5" cx="98" cy="233.1" r="0.3"/>
			<circle class="st5" cx="96.1" cy="228.5" r="0.6"/>
			<circle class="st5" cx="94.3" cy="232.5" r="0.6"/>
			<circle class="st5" cx="94.2" cy="229.7" r="0.6"/>
			<circle class="st5" cx="98.8" cy="232" r="0.6"/>
			<circle class="st5" cx="98.3" cy="229.3" r="0.6"/>
			<circle class="st5" cx="95.2" cy="233.4" r="0.3"/>
			<circle class="st5" cx="99" cy="230.6" r="0.3"/>
			<circle class="st5" cx="97.4" cy="228.5" r="0.3"/>
			<circle class="st5" cx="93.8" cy="231.1" r="0.3"/>
			<circle class="st5" cx="94.9" cy="228.8" r="0.3"/>
		</g>
		<g>
			<circle class="st6" cx="96.7" cy="233.7" r="0.3"/>
			<circle class="st6" cx="98.9" cy="232.2" r="0.3"/>
			<circle class="st6" cx="98.5" cy="229.4" r="0.3"/>
			<circle class="st6" cx="96.2" cy="228.6" r="0.3"/>
			<circle class="st6" cx="94" cy="232.7" r="0.3"/>
			<circle class="st6" cx="93.9" cy="229.8" r="0.3"/>
			<circle class="st6" cx="97.4" cy="231.4" r="0.3"/>
			<circle class="st6" cx="94.9" cy="231.3" r="0.3"/>
			<circle class="st6" cx="95.6" cy="230.2" r="0.3"/>
			<circle class="st6" cx="98" cy="233.3" r="0.1"/>
			<circle class="st6" cx="96" cy="232.1" r="0.2"/>
			<circle class="st6" cx="97.2" cy="230" r="0.1"/>
			<circle class="st6" cx="95.2" cy="233.7" r="0.1"/>
			<circle class="st6" cx="93.6" cy="231.2" r="0.1"/>
			<circle class="st6" cx="94.9" cy="228.9" r="0.1"/>
			<circle class="st6" cx="97.4" cy="228.6" r="0.1"/>
			<circle class="st6" cx="99" cy="230.8" r="0.1"/>
		</g>
	</g>
	<g>
		<g>
			<circle class="st5" cx="89.3" cy="235.3" r="2.6"/>
			<circle class="st5" cx="89.5" cy="237.8" r="0.6"/>
			<circle class="st5" cx="90.8" cy="237.4" r="0.3"/>
			<circle class="st5" cx="88.9" cy="232.7" r="0.6"/>
			<circle class="st5" cx="87.2" cy="236.8" r="0.6"/>
			<circle class="st5" cx="87.1" cy="233.9" r="0.6"/>
			<circle class="st5" cx="91.7" cy="236.2" r="0.6"/>
			<circle class="st5" cx="91.2" cy="233.5" r="0.6"/>
			<circle class="st5" cx="88.1" cy="237.6" r="0.3"/>
			<circle class="st5" cx="91.9" cy="234.8" r="0.3"/>
			<circle class="st5" cx="90.2" cy="232.8" r="0.3"/>
			<circle class="st5" cx="86.6" cy="235.4" r="0.3"/>
			<circle class="st5" cx="87.8" cy="233" r="0.3"/>
		</g>
		<g>
			<circle class="st6" cx="89.5" cy="237.9" r="0.3"/>
			<circle class="st6" cx="91.7" cy="236.5" r="0.3"/>
			<circle class="st6" cx="91.3" cy="233.6" r="0.3"/>
			<circle class="st6" cx="89" cy="232.8" r="0.3"/>
			<circle class="st6" cx="86.9" cy="237" r="0.3"/>
			<circle class="st6" cx="86.8" cy="234.1" r="0.3"/>
			<circle class="st6" cx="90.3" cy="235.7" r="0.3"/>
			<circle class="st6" cx="87.7" cy="235.5" r="0.3"/>
			<circle class="st6" cx="88.4" cy="234.4" r="0.3"/>
			<circle class="st6" cx="90.8" cy="237.5" r="0.1"/>
			<circle class="st6" cx="88.8" cy="236.4" r="0.2"/>
			<circle class="st6" cx="90" cy="234.3" r="0.1"/>
			<circle class="st6" cx="88.1" cy="237.9" r="0.1"/>
			<circle class="st6" cx="86.5" cy="235.5" r="0.1"/>
			<circle class="st6" cx="87.8" cy="233.1" r="0.1"/>
			<circle class="st6" cx="90.2" cy="232.8" r="0.1"/>
			<circle class="st6" cx="91.9" cy="235" r="0.1"/>
		</g>
	</g>
	<g>
		<g>
			<circle class="st5" cx="91.2" cy="228.8" r="2.6"/>
			<circle class="st5" cx="91.4" cy="231.2" r="0.6"/>
			<circle class="st5" cx="92.7" cy="230.8" r="0.3"/>
			<circle class="st5" cx="90.8" cy="226.2" r="0.6"/>
			<circle class="st5" cx="89.1" cy="230.3" r="0.6"/>
			<circle class="st5" cx="89" cy="227.4" r="0.6"/>
			<circle class="st5" cx="93.6" cy="229.7" r="0.6"/>
			<circle class="st5" cx="93.1" cy="227" r="0.6"/>
			<circle class="st5" cx="90" cy="231.1" r="0.3"/>
			<circle class="st5" cx="93.8" cy="228.3" r="0.3"/>
			<circle class="st5" cx="92.1" cy="226.2" r="0.3"/>
			<circle class="st5" cx="88.5" cy="228.9" r="0.3"/>
			<circle class="st5" cx="89.7" cy="226.5" r="0.3"/>
		</g>
		<g>
			<circle class="st6" cx="91.4" cy="231.4" r="0.3"/>
			<circle class="st6" cx="93.6" cy="230" r="0.3"/>
			<circle class="st6" cx="93.2" cy="227.1" r="0.3"/>
			<circle class="st6" cx="90.9" cy="226.3" r="0.3"/>
			<circle class="st6" cx="88.8" cy="230.5" r="0.3"/>
			<circle class="st6" cx="88.7" cy="227.6" r="0.3"/>
			<circle class="st6" cx="92.2" cy="229.2" r="0.3"/>
			<circle class="st6" cx="89.7" cy="229" r="0.3"/>
			<circle class="st6" cx="90.3" cy="227.9" r="0.3"/>
			<circle class="st6" cx="92.8" cy="231" r="0.1"/>
			<circle class="st6" cx="90.7" cy="229.8" r="0.2"/>
			<circle class="st6" cx="91.9" cy="227.7" r="0.1"/>
			<circle class="st6" cx="90" cy="231.4" r="0.1"/>
			<circle class="st6" cx="88.4" cy="229" r="0.1"/>
			<circle class="st6" cx="89.7" cy="226.6" r="0.1"/>
			<circle class="st6" cx="92.1" cy="226.3" r="0.1"/>
			<circle class="st6" cx="93.8" cy="228.5" r="0.1"/>
		</g>
	</g>
	<path class="st0" d="M128.7,220c0,0-2.7,1.9,0,5.7c2.7,3.8,3.9-3.6,2.5-5.7C129.9,218,128.7,220,128.7,220z"/>
	<path class="st2" d="M117.4,292.8"/>
	<path class="st2" d="M135.4,291.6"/>
	<g>
		<path class="st0" d="M121.7,138.7c-0.5,3.5-0.8,7-0.8,10.5c0,3.5,0.1,7,0.4,10.5c0.3,3.5,0.8,7,1.3,10.4c0.4,3.5,1,6.9,1.5,10.4
			l-0.1,0c-1.1-3.4-1.8-6.8-2.4-10.3c-0.6-3.5-0.9-7-1.1-10.5c-0.2-3.5-0.2-7.1-0.1-10.6C120.6,145.6,121,142.1,121.7,138.7
			L121.7,138.7z"/>
	</g>
	<g>
		<path class="st0" d="M104.7,97.3c-0.1,0.4-0.2,0.9-0.2,1.3c0,0.4,0.1,0.8,0.3,1.3c0.3,0.8,0.6,1.7,0.8,2.5
			c0.5,1.7,0.9,3.4,2.1,4.7c1.1,1.3,2.2,2.8,3.1,4.3c0.9,1.5,1.6,3.1,2.1,4.9l0,0.1c0,0,0.1,0.3,0.1,0.4l0.2,0.5l0.4,1l0.8,2
			l1.5,4.1l0,0c-0.6-1.3-1.2-2.6-1.8-4c-0.3-0.7-0.6-1.3-0.8-2l-0.4-1l-0.2-0.5c-0.1-0.2-0.1-0.3-0.1-0.6l0,0.1
			c-0.4-1.6-1.2-3.2-2-4.8c-0.9-1.5-1.9-2.9-3-4.3c-1.2-1.4-1.6-3.2-2-4.9c-0.2-0.8-0.5-1.7-0.7-2.5c-0.1-0.4-0.2-0.9-0.2-1.3
			C104.5,98.1,104.6,97.7,104.7,97.3L104.7,97.3z"/>
	</g>
	<path class="st0" d="M128.8,220.5c0,0-2.7,1.9,0,5.7c2.7,3.8,3.9-3.6,2.5-5.7S128.8,220.5,128.8,220.5z"/>
	<path class="st2" d="M135.6,292.1"/>
	<path class="st0" d="M130.4,220.5c0,0,2.7,1.9,0,5.7c-2.7,3.8-3.9-3.6-2.5-5.7S130.4,220.5,130.4,220.5z"/>
	<path class="st2" d="M141.8,293.2"/>
	<path class="st2" d="M123.7,292.1"/>
	<g>
		<g>
			<path class="st0" d="M140.7,256.7c0.6-0.3,1.3-0.6,1.9-0.5c0.7,0.1,1.3,0.6,1.6,1.2c0.7,1.2,1,2.5,1.2,3.8c0.4,2.6,0.5,5.3,0.7,8
				c0.2,2.7,0.2,5.4,0.7,8c0.1,0.6,0.3,1.3,0.6,1.8c0.2,0.3,0.4,0.5,0.7,0.7c0.3,0.2,0.6,0.3,0.9,0.5c1.2,0.6,2.4,1,3.7,1.4
				c5.1,1.5,10.5,2.1,15.8,2.7l4,0.4c0.7,0.1,1.3,0.2,2,0.3c0.2,0,0.3,0,0.6,0.2c0,0,0.1,0,0.1,0.3c0,0.1-0.1,0.2-0.1,0.2
				c-0.1,0-0.1,0-0.2,0.1l-0.3,0.1c-0.3,0.1-0.7,0.1-1,0.2c-2.7,0.4-5.3,0.7-8,0.9c-5.3,0.4-10.7,0.5-16.1-0.1
				c-2.6-0.4-5.4-0.9-7.7-2.4c-0.6-0.4-1.1-0.9-1.5-1.4c-0.4-0.6-0.7-1.2-1-1.8c-0.5-1.3-0.8-2.6-0.9-4c-0.1-2.7,0.3-5.4,0.7-8
				c0.4-2.6,0.8-5.3,1-7.9c0.4-5.3,0.1-10.7-1.5-15.7c-0.8-2.5-1.9-4.9-3.1-7.3c-1.2-2.4-2.6-4.7-3.7-7.1c-1.1-2.5-2-5-2.5-7.7
				c-0.5-2.7-0.5-5.4-0.6-8.1c0-5.4,0.4-10.7,1.1-16.1c0.7-5.3,1.8-10.6,3.4-15.7c1.5-5.1,3.7-10.2,6.7-14.7
				c1.4-2.3,3.3-4.3,3.6-6.9c0.2-1.3,0.1-2.6,0.1-3.9c-0.1-1.3-0.2-2.6-0.4-4c-0.6-5.3-1.3-10.6-1.9-15.9l-0.2-2
				c-0.1-0.7-0.1-1.4,0-2.1c0.1-1.4,0.3-2.7,0.5-4c0.5-2.7,0.9-5.3,1.9-7.9l0,0l0,0l7.2-8.6l0,0.1c0.6-1,1.3-1.7,2-2.5l2.2-2.3
				c0.4-0.4,0.7-0.8,0.9-1.2c0.3-0.4,0.6-0.9,0.8-1.3c0.5-0.9,1-1.8,1.5-2.8c1.7-3.8,2.7-8,3.2-12.2l0.1,0c-0.4,4.2-1.3,8.4-3,12.3
				c-0.4,1-0.9,1.9-1.4,2.9c-0.3,0.5-0.5,0.9-0.8,1.4c-0.3,0.5-0.6,0.9-1,1.3l-2.1,2.4c-0.7,0.8-1.5,1.6-1.9,2.4l0,0.1l0,0l-7.1,8.7
				l0-0.1c-0.9,2.5-1.3,5.1-1.8,7.7c-0.2,1.3-0.4,2.6-0.4,4c0,0.7,0,1.3,0,1.9l0.3,2c0.7,5.3,1.4,10.6,2.1,15.9
				c0.2,1.3,0.3,2.7,0.4,4c0.1,1.3,0.2,2.7,0,4.1c-0.2,1.4-0.8,2.8-1.5,3.9l-2.2,3.4c-2.9,4.5-5,9.3-6.6,14.4
				c-1.6,5.1-2.6,10.3-3.4,15.6c-0.8,5.3-1.1,10.6-1.2,15.9c0,2.7,0,5.3,0.5,7.9c0.5,2.6,1.3,5.1,2.4,7.5c1.1,2.4,2.4,4.7,3.7,7.1
				c1.2,2.4,2.4,4.8,3.2,7.4c1.6,5.2,1.9,10.7,1.5,16c-0.2,2.7-0.6,5.3-1,8c-0.4,2.6-0.9,5.3-0.7,7.9c0.1,1.3,0.3,2.6,0.8,3.8
				c0.2,0.6,0.5,1.2,0.9,1.7c0.4,0.5,0.8,0.9,1.4,1.3c2.2,1.4,4.9,1.9,7.5,2.3c5.3,0.7,10.6,0.6,16,0.2c2.7-0.2,5.3-0.4,8-0.9
				c0.3-0.1,0.7-0.1,1-0.2l0.2-0.1c0,0,0.1,0,0.1,0c0,0,0,0-0.1,0.1c0,0.2,0.1,0.2,0.1,0.2c-0.1,0-0.3-0.1-0.4-0.1
				c-0.6-0.1-1.3-0.2-2-0.3l-4-0.5c-5.3-0.6-10.6-1.3-15.8-2.8c-1.3-0.4-2.6-0.8-3.8-1.5c-0.3-0.2-0.6-0.3-0.9-0.5
				c-0.3-0.2-0.6-0.4-0.7-0.7c-0.4-0.6-0.5-1.3-0.7-1.9c-0.5-2.6-0.6-5.3-0.7-8c-0.1-2.7-0.2-5.3-0.6-8c-0.2-1.3-0.5-2.6-1.2-3.8
				c-0.3-0.6-0.9-1-1.5-1.1C142,256.2,141.4,256.4,140.7,256.7L140.7,256.7z"/>
		</g>
		<path class="st1" d="M144.8,167.2c-4.3,32.1-10.7,36-15.3,53.7"/>
		<path class="st1" d="M143.1,148.2c1.8,20.8,4.9,38.8,0.6,47.9c-4.3,9.2-9.2,25.4-8.9,32.7c0.3,7.3,6.2,22.3,13.2,32.7
			c7,10.4,10,6.1,17.1,8.3c6.8,2.1,11.6,12.7,12.9,15.3"/>
		<path class="st1" d="M176.5,285.4c-14-2.3-15.1-8.1-16.7-11.7c-3.1-7-3.9-15.3-3.1-17.9c1.2-4-3.4-6.9-15.3-5.6"/>
		<path class="st1" d="M141.5,202.9c14.1,21.2,9.3,13.8,30.3,32.1s7.5,39.4,6.9,48.8"/>
		<path class="st1" d="M177.9,285.2c2.3-18.7-4.3-33.7-7.4-40.4c-3.1-6.7-2.2-5.7-2.6-13.1"/>
		<path class="st1" d="M145.7,190.7c0,0,10.9,14.1,35.8,0s39.8,36.7,42.3,49.8c2.4,13.1-2.8,89.8-3.1,99.7"/>
		<path class="st1" d="M145.7,192.5c23.8,13.3,29.3,3.1,35.8,28.7s-7.1,24.2-9.8,36.1c-2.3,10.4-4.1,14.2-3.8,20.9
			c0.1,2.7,8.5,7.6,8.6,7.2"/>
		<path class="st1" d="M190.4,188.2c13.8,33.6-0.9,16.2,0.6,41.9c1.5,25.7,1.8,17.7-2.8,33.6c-4.6,15.9-4.8,15.1-9.6,20.1"/>
		<path class="st1" d="M196.8,209.3c15.5,16.2,16.8,17.4,17.5,28.2c0.6,10.9-11.2-0.2-17.4,9.3s-1.2,13.8-2.4,26.6
			s-13.6,10.9-17.9,11.9"/>
		<path class="st0" d="M196.4,206.6c0,0,3-0.9,4,4.9s-5.6,1.6-5.5-2.5C194.9,206,196.4,206.6,196.4,206.6z"/>
		<path class="st0" d="M213.8,234.9c0,0,3-0.9,4,4.9s-5,2.2-5.6-0.8S213.8,234.9,213.8,234.9z"/>
		<path class="st0" d="M210.5,202.6c0,0,3-0.9,4,4.9s-4.9,0.6-5.5-2.5S210.5,202.6,210.5,202.6z"/>
		<path class="st0" d="M195.9,262.4c0,0,3,1,0.4,6.3c-2.6,5.3-4.3-2.4-3.1-5.2C194.5,260.7,195.9,262.4,195.9,262.4z"/>
		<path class="st0" d="M224.2,271.2c0,0,4,0.9,1.5,6.3c-2.5,5.3-4.4-2.3-3.2-5.1C223.8,269.5,224.2,271.2,224.2,271.2z"/>
		<path class="st0" d="M145.2,189.6c0,0-2.4,2.3,0.9,5.6c3.2,3.3,3.3-4.2,1.6-6C146.1,187.5,145.2,189.6,145.2,189.6z"/>
		<path class="st0" d="M145.9,117.2c0,0-3.2,0.8-2,5.3c1.2,4.5,4.9-2,4.4-4.4S145.9,117.2,145.9,117.2z"/>
		<path class="st0" d="M128.6,220c0,0-2.7,1.9,0,5.7c2.7,3.8,3.9-3.6,2.5-5.7S128.6,220,128.6,220z"/>
		<path class="st0" d="M137.5,245.5c0,0-1.3,3,3,4.8s1.4-5.1-0.8-6.1C137.4,243.2,137.5,245.5,137.5,245.5z"/>
		<path class="st0" d="M166.1,231.1c0,0-0.5,4.5,4.2,5.7s0-7.4-2.4-8.1C165.4,227.9,166.1,231.1,166.1,231.1z"/>
		<path class="st0" d="M146.9,297.8c0,0,0.5,4.5,5.3,4.7c4.8,0.2-1.5-7.2-4-7.4C145.6,294.8,146.9,297.8,146.9,297.8z"/>
		<path class="st1" d="M176.5,285.4c-4.9,6.1-11.2,15-15.5,15.7c-4.3,0.6-9,0.6-12.3-2.1c-3.3-2.8-5.5-10.7-6.1-21.7
			s-11.6-11.7-14.3-29.8c-2.7-18.2,0.2-21.7,0.2-21.7"/>
		<path class="st1" d="M177.9,285.2c-1.2,7.9-9.4,10.1-13.4,11s-7.3,0.3-11.2,2.8s-2.5,2.6-4.5,0"/>
		<path class="st2" d="M242.5,341.3"/>
		<path class="st2" d="M205.1,340.9"/>
		<path class="st2" d="M242.5,341.3c-3.6-19.8-6.3-45.4-3.8-70.5c5-49,1.4-60.6-9-77c-10.6-16.9-49.9-13.2-71-30
			c-13.3-10.6-11.5-25.2-7.2-35c0.7-1.5,1.5-3,2.5-4.3c0,0,15.3-8.8,14.4-56.8c-0.9-48-39.1-46.2-39.1-46.2"/>
		<path class="st2" d="M205.1,340.9c-1-17.6,0.8-37.1,3.6-64.5c6-60-12.3,12.4-12.3,16.4c0,2.4-3.4,22-2.2,48.2"/>
		<path class="st2" d="M205.1,340.9"/>
		<path class="st2" d="M242.5,341.3"/>
		<path class="st2" d="M135.3,291.6c1.8,5,5,8.3,7.4,10.8c5,5.5,14.4,7.2,25.3,6.5c13.6-0.8,20.7-8.3,25.6-14.4c2.3-2.8,4-8.3,4-8.3
			"/>
		<path class="st1" d="M214.2,238.9c0,0,6.7,8.4,5.9,20.6c-0.8,12.2,9.3,31.7,12.5,48.4c3.2,16.7-2.1,17.1-0.9,25.4"/>
		<path class="st1" d="M224.3,275.7c0,0-1.4,17.3-7,26.5c-5.6,9.2-4.8,8-6.4,18.9"/>
		<path class="st1" d="M210.9,206.6c17.6,5.1,18.4,11.2,21.6,19.7s1.2,20.5,0,37.7c-1.2,17.2-4.4,13-5.6,75.8"/>
		<path class="st2" d="M135.3,291.6"/>
		<path class="st0" d="M130.2,220c0,0,2.7,1.9,0,5.7c-2.7,3.8-3.9-3.6-2.5-5.7S130.2,220,130.2,220z"/>
		<path class="st2" d="M141.5,292.8"/>
		<path class="st2" d="M123.5,291.6"/>
		<g>
			<path class="st0" d="M137.2,138.7c0.6,3.5,1,7,1.2,10.5c0.1,3.5,0.1,7.1-0.1,10.6c-0.2,3.5-0.5,7.1-1.1,10.5
				c-0.6,3.5-1.3,6.9-2.4,10.3l-0.1,0c0.5-3.5,1.1-7,1.5-10.4c0.5-3.5,1-6.9,1.3-10.4c0.3-3.5,0.4-7,0.4-10.5
				C137.9,145.7,137.6,142.2,137.2,138.7L137.2,138.7z"/>
		</g>
		<g>
			<path class="st0" d="M154.2,97.3c0.1,0.4,0.2,0.8,0.3,1.3c0,0.5-0.1,0.9-0.2,1.3c-0.2,0.8-0.5,1.7-0.7,2.5
				c-0.4,1.7-0.9,3.5-2,4.9c-1.1,1.4-2.1,2.8-3,4.3c-0.8,1.5-1.6,3.1-2,4.8l0-0.1c0,0.3-0.1,0.4-0.1,0.6l-0.2,0.5l-0.4,1
				c-0.3,0.7-0.5,1.3-0.8,2c-0.6,1.3-1.2,2.6-1.8,4l0,0l1.5-4.1l0.8-2l0.4-1l0.2-0.5c0-0.1,0.1-0.4,0.1-0.4l0-0.1
				c0.4-1.8,1.2-3.4,2.1-4.9c0.9-1.5,2-2.9,3.1-4.3c1.2-1.3,1.6-3,2.1-4.7c0.3-0.8,0.5-1.7,0.8-2.5c0.1-0.4,0.3-0.8,0.3-1.3
				C154.3,98.1,154.2,97.7,154.2,97.3L154.2,97.3z"/>
		</g>
		<path class="st0" d="M130,220.5c0,0,2.7,1.9,0,5.7c-2.7,3.8-3.9-3.6-2.5-5.7C128.8,218.4,130,220.5,130,220.5z"/>
		<path class="st2" d="M123.3,292.1"/>
		<path class="st0" d="M128.4,220.5c0,0-2.7,1.9,0,5.7c2.7,3.8,3.9-3.6,2.5-5.7C129.6,218.4,128.4,220.5,128.4,220.5z"/>
		<path class="st2" d="M117.1,293.2"/>
		<path class="st2" d="M135.1,292.1"/>
	</g>
	<g>
		<g>
			<line class="st7" x1="276" y1="103.3" x2="278" y2="103.3"/>
			<line class="st8" x1="282.4" y1="103.3" x2="306.6" y2="103.3"/>
			<line class="st7" x1="308.8" y1="103.3" x2="310.8" y2="103.3"/>
			<g>
				<path d="M310.4,103.3c-1-1-1.5-3.1-1.6-4.5c1.4,1.9,3.3,3.6,5.5,4.5c-2.3,0.9-4,2.7-5.5,4.5C309,106.3,309.4,104.5,310.4,103.3z
					"/>
			</g>
		</g>
	</g>
	<g>
		<g>
			<line class="st7" x1="326.3" y1="103.3" x2="342.8" y2="93.7"/>
			<g>
				<path d="M342.5,93.9c-1.4-0.4-2.9-1.9-3.6-3.1c2.2,0.9,4.7,1.5,7.1,1.2c-1.5,1.9-2.1,4.3-2.5,6.7
					C342.7,97.3,342.1,95.5,342.5,93.9z"/>
			</g>
		</g>
	</g>
	<g>
		<g>
			<line class="st7" x1="326.3" y1="103.6" x2="342.8" y2="113.2"/>
			<g>
				<path d="M342.5,113c-0.4-1.4,0.2-3.5,0.9-4.7c0.3,2.4,1,4.8,2.5,6.7c-2.4-0.3-4.8,0.3-7.1,1.2C339.7,114.8,341,113.4,342.5,113z
					"/>
			</g>
		</g>
	</g>
	<g>
		<g>
			<line class="st7" x1="354.9" y1="121.8" x2="371.5" y2="131.5"/>
			<g>
				<path d="M371.2,131.3c-0.4-1.4,0.2-3.5,0.9-4.7c0.3,2.4,1,4.8,2.5,6.7c-2.4-0.3-4.8,0.3-7.1,1.2
					C368.4,133.1,369.7,131.7,371.2,131.3z"/>
			</g>
		</g>
	</g>
	<g>
		<g>
			<line class="st7" x1="384.9" y1="139.4" x2="401.4" y2="149"/>
			<g>
				<path d="M401.1,148.8c-0.4-1.4,0.2-3.5,0.9-4.7c0.3,2.4,1,4.8,2.5,6.7c-2.4-0.3-4.8,0.3-7.1,1.2
					C398.3,150.7,399.6,149.3,401.1,148.8z"/>
			</g>
		</g>
	</g>
	<g>
		<g>
			<line class="st7" x1="414.4" y1="158" x2="431" y2="167.6"/>
			<g>
				<path d="M430.7,167.4c-0.4-1.4,0.2-3.5,0.9-4.7c0.3,2.4,1,4.8,2.5,6.7c-2.4-0.3-4.8,0.3-7.1,1.2
					C427.9,169.3,429.2,167.9,430.7,167.4z"/>
			</g>
		</g>
	</g>
	<g>
		<g>
			<line class="st7" x1="443.5" y1="173.7" x2="460" y2="183.3"/>
			<g>
				<path d="M459.7,183.1c-0.4-1.4,0.2-3.5,0.9-4.7c0.3,2.4,1,4.8,2.5,6.7c-2.4-0.3-4.8,0.3-7.1,1.2
					C456.9,185,458.2,183.5,459.7,183.1z"/>
			</g>
		</g>
	</g>
	<g>
		<g>
			<line class="st7" x1="384.9" y1="139.7" x2="401.4" y2="130.1"/>
			<g>
				<path d="M401.1,130.3c-1.4-0.4-2.9-1.9-3.6-3.1c2.2,0.9,4.7,1.5,7.1,1.2c-1.5,1.9-2.1,4.3-2.5,6.7
					C401.3,133.7,400.7,131.9,401.1,130.3z"/>
			</g>
		</g>
	</g>
	<g>
		<g>
			<line class="st7" x1="443.7" y1="173.8" x2="460.3" y2="164.2"/>
			<g>
				<path d="M460,164.4c-1.4-0.4-2.9-1.9-3.6-3.1c2.2,0.9,4.7,1.5,7.1,1.2c-1.5,1.9-2.1,4.3-2.5,6.7
					C460.2,167.7,459.6,165.9,460,164.4z"/>
			</g>
		</g>
	</g>
	<g>
		<g>
			<line class="st7" x1="357.1" y1="85" x2="373.7" y2="75.4"/>
			<g>
				<path d="M373.4,75.6c-1.4-0.4-2.9-1.9-3.6-3.1c2.2,0.9,4.7,1.5,7.1,1.2c-1.5,1.9-2.1,4.3-2.5,6.7C373.6,79,373,77.2,373.4,75.6z
					"/>
			</g>
		</g>
	</g>
	<g>
		<g>
			<line class="st7" x1="388.9" y1="68" x2="405.5" y2="58.4"/>
			<g>
				<path d="M405.2,58.6c-1.4-0.4-2.9-1.9-3.6-3.1c2.2,0.9,4.7,1.5,7.1,1.2c-1.5,1.9-2.1,4.3-2.5,6.7
					C405.4,62,404.8,60.2,405.2,58.6z"/>
			</g>
		</g>
	</g>
	<g>
		<g>
			<line class="st7" x1="356.1" y1="86" x2="372.7" y2="95.6"/>
			<g>
				<path d="M372.3,95.4c-0.4-1.4,0.2-3.5,0.9-4.7c0.3,2.4,1,4.8,2.5,6.7c-2.4-0.3-4.8,0.3-7.1,1.2
					C369.6,97.3,370.8,95.9,372.3,95.4z"/>
			</g>
		</g>
	</g>
	<g>
		<g>
			<line class="st7" x1="420.7" y1="52.6" x2="437.3" y2="43"/>
			<g>
				<path d="M437,43.2c-1.4-0.4-2.9-1.9-3.6-3.1c2.2,0.9,4.7,1.5,7.1,1.2c-1.5,1.9-2.1,4.3-2.5,6.7C437.2,46.6,436.6,44.8,437,43.2z
					"/>
			</g>
		</g>
	</g>
	<g>
		<g>
			<line class="st7" x1="419.7" y1="53.6" x2="436.3" y2="63.2"/>
			<g>
				<path d="M435.9,63c-0.4-1.4,0.2-3.5,0.9-4.7c0.3,2.4,1,4.8,2.5,6.7c-2.4-0.3-4.8,0.3-7.1,1.2C433.2,64.9,434.4,63.5,435.9,63z"
					/>
			</g>
		</g>
	</g>
	<g>
		<g>
			<line class="st7" x1="485.6" y1="67.8" x2="502.2" y2="58.2"/>
			<g>
				<path d="M501.9,58.4c-1.4-0.4-2.9-1.9-3.6-3.1c2.2,0.9,4.7,1.5,7.1,1.2c-1.5,1.9-2.1,4.3-2.5,6.7
					C502.1,61.7,501.5,59.9,501.9,58.4z"/>
			</g>
		</g>
	</g>
	<g>
		<g>
			<line class="st9" x1="576.1" y1="31.7" x2="587.6" y2="23.9"/>
			<g>
				<path d="M587.3,24c-1.1-0.2-2.3-1.3-2.9-2.1c1.7,0.6,3.6,0.8,5.4,0.5c-1,1.5-1.4,3.4-1.5,5.2C587.7,26.5,587.2,25.2,587.3,24z"
					/>
			</g>
		</g>
	</g>
	<g>
		<g>
			<line class="st7" x1="484.6" y1="68.7" x2="501.2" y2="78.3"/>
			<g>
				<path d="M500.8,78.1c-0.4-1.4,0.2-3.5,0.9-4.7c0.3,2.4,1,4.8,2.5,6.7c-2.4-0.3-4.8,0.3-7.1,1.2C498.1,80,499.3,78.6,500.8,78.1z
					"/>
			</g>
		</g>
	</g>
	<g>
		<g>
			<line class="st9" x1="576.8" y1="32" x2="588.2" y2="38.2"/>
			<g>
				<path d="M587.9,38c-0.3-1.1,0.1-2.6,0.6-3.6c0.3,1.8,0.9,3.6,2,5c-1.8-0.2-3.6,0.3-5.3,1C585.9,39.5,586.8,38.4,587.9,38z"/>
			</g>
		</g>
	</g>
	<g>
		<g>
			<line class="st9" x1="515.8" y1="48.1" x2="531.5" y2="35.6"/>
			<g>
				<path d="M531.3,35.8c-1.1-0.1-2.4-1.1-3-1.9c1.7,0.5,3.6,0.6,5.4,0.1c-0.9,1.6-1.1,3.5-1.1,5.3C531.8,38.2,531.2,37,531.3,35.8z
					"/>
			</g>
		</g>
	</g>
	<g>
		<g>
			<line class="st7" x1="449.8" y1="123.6" x2="466.4" y2="114"/>
			<g>
				<path d="M466.1,114.2c-1.4-0.4-2.9-1.9-3.6-3.1c2.2,0.9,4.7,1.5,7.1,1.2c-1.5,1.9-2.1,4.3-2.5,6.7
					C466.3,117.5,465.7,115.7,466.1,114.2z"/>
			</g>
		</g>
	</g>
	<g>
		<g>
			<line class="st7" x1="448.8" y1="124.6" x2="465.4" y2="134.2"/>
			<g>
				<path d="M465.1,134c-0.4-1.4,0.2-3.5,0.9-4.7c0.3,2.4,1,4.8,2.5,6.7c-2.4-0.3-4.8,0.3-7.1,1.2
					C462.3,135.8,463.5,134.4,465.1,134z"/>
			</g>
		</g>
	</g>
	<g>
		<g>
			<line class="st7" x1="387" y1="102.3" x2="405.6" y2="102.3"/>
			<g>
				<path d="M405.2,102.3c-1-1-1.5-3.1-1.6-4.5c1.4,1.9,3.3,3.6,5.5,4.5c-2.3,0.9-4,2.7-5.5,4.5
					C403.7,105.3,404.1,103.4,405.2,102.3z"/>
			</g>
		</g>
	</g>
	<g>
		<g>
			<line class="st7" x1="451.8" y1="35.2" x2="468.2" y2="26.6"/>
			<g>
				<path d="M467.9,26.8c-1.4-0.4-2.8-2-3.5-3.3c2.2,1,4.6,1.7,7,1.4c-1.6,1.8-2.3,4.3-2.8,6.6C468,30.1,467.4,28.3,467.9,26.8z"/>
			</g>
		</g>
	</g>
	<g>
		<g>
			<line class="st7" x1="415.3" y1="124.1" x2="433.8" y2="124.1"/>
			<g>
				<path d="M433.4,124.1c-1-1-1.5-3.1-1.6-4.5c1.4,1.9,3.3,3.6,5.5,4.5c-2.3,0.9-4,2.7-5.5,4.5
					C431.9,127.1,432.3,125.2,433.4,124.1z"/>
			</g>
		</g>
	</g>
	<g>
		<g>
			<line class="st7" x1="473.8" y1="158.1" x2="492.3" y2="158.1"/>
			<g>
				<path d="M491.9,158.1c-1-1-1.5-3.1-1.6-4.5c1.4,1.9,3.3,3.6,5.5,4.5c-2.3,0.9-4,2.7-5.5,4.5
					C490.4,161.1,490.8,159.3,491.9,158.1z"/>
			</g>
		</g>
	</g>
	<g>
		<g>
			<line class="st7" x1="481.9" y1="108.2" x2="500.4" y2="108.2"/>
			<g>
				<path d="M500,108.2c-1-1-1.5-3.1-1.6-4.5c1.4,1.9,3.3,3.6,5.5,4.5c-2.3,0.9-4,2.7-5.5,4.5C498.5,111.2,498.9,109.3,500,108.2z"
					/>
			</g>
		</g>
	</g>
	<g>
		<circle class="st10" cx="270.1" cy="103.3" r="5.9"/>
		<circle class="st11" cx="320.3" cy="103.3" r="5.9"/>
		<circle class="st12" cx="351.5" cy="88.4" r="5.9"/>
		<g>
			<circle class="st13" cx="414.9" cy="102.3" r="5.9"/>
		</g>
		<circle class="st12" cx="349.9" cy="119.2" r="5.9"/>
		<circle class="st14" cx="379.2" cy="136.2" r="5.9"/>
		<circle class="st14" cx="408.5" cy="155.1" r="5.9"/>
		<circle class="st14" cx="438.1" cy="173.7" r="5.9"/>
		<circle class="st14" cx="467.1" cy="189.3" r="5.9"/>
		<circle class="st14" cx="408.5" cy="124.1" r="5.9"/>
		<circle class="st14" cx="467.4" cy="158.1" r="5.9"/>
		<circle class="st12" cx="382.4" cy="70.1" r="5.9"/>
		<circle class="st15" cx="414.1" cy="53.1" r="5.9"/>
		<circle class="st12" cx="381.3" cy="100.9" r="5.9"/>
		<circle class="st15" cx="445.9" cy="37.7" r="5.9"/>
		<circle class="st15" cx="444.9" cy="68.5" r="5.9"/>
		<circle class="st15" cx="510.9" cy="52.9" r="5.9"/>
		<circle class="st16" cx="539.8" cy="32.1" r="5.9"/>
		<circle class="st16" cx="568.9" cy="31.8" r="5.9"/>
		<circle class="st16" cx="595.9" cy="19.4" r="5.9"/>
		<circle class="st17" cx="595.9" cy="41" r="5.9"/>
		<circle class="st18" cx="509.8" cy="83.6" r="5.9"/>
		<circle class="st19" cx="475.1" cy="108.7" r="5.9"/>
		<circle class="st14" cx="474" cy="139.5" r="5.9"/>
		<g>
			<path class="st20" d="M481.7,19.5c1.5,2.9,0.4,6.5-2.5,8c-2.9,1.5-6.5,0.4-8-2.5s-0.4-6.5,2.5-8S480.2,16.6,481.7,19.5z"/>
		</g>
		<circle class="st14" cx="443.1" cy="124.1" r="5.9"/>
		<circle class="st21" cx="501.6" cy="158.1" r="5.9"/>
		<circle class="st19" cx="509.7" cy="108.2" r="5.9"/>
		<circle class="st15" cx="478.3" cy="68.3" r="5.9"/>
	</g>
	<g>
		<g>
			<line class="st7" x1="450.5" y1="68.3" x2="469" y2="68.3"/>
			<g>
				<path d="M468.6,68.3c-1-1-1.5-3.1-1.6-4.5c1.4,1.9,3.3,3.6,5.5,4.5c-2.3,0.9-4,2.7-5.5,4.5C467.2,71.3,467.5,69.4,468.6,68.3z"
					/>
			</g>
		</g>
	</g>
	<g>
		<g>
			<line class="st9" x1="545.9" y1="31.8" x2="559.3" y2="31.8"/>
			<g>
				<path d="M559,31.8c-0.8-0.8-1.2-2.3-1.2-3.4c1.1,1.4,2.5,2.7,4.2,3.4c-1.7,0.7-3,2-4.2,3.4C557.9,34.1,558.2,32.7,559,31.8z"/>
			</g>
		</g>
	</g>
	<g>
		<path class="st3" d="M540.9,340.9c-15.4-0.7-35.8-2.1-58.7-5.2c-13.7-1.9-42.3-5.8-72-14.7c-33.2-9.9-32.3-15.3-58.7-22
			c-25.4-6.4-52.8-8.2-74.7-8.4l-2.4,0.2c21.9-0.2,49.3-1.9,74.7-8.4c26.4-6.7,25.5-12.1,58.7-22c29.7-8.8,58.3-12.8,72-14.7
			c22.9-3.1,43.2-4.5,58.7-5.2"/>
		<path class="st22" d="M563.9,341.8c-14.9-0.7-34.5-2.2-56.5-5.4c-13.2-1.9-40.8-6-69.3-15c-32-10.1-31.1-15.7-56.5-22.6
			c-24.5-6.6-32.7-8.9-53.8-9.1l-20.4,0.7c21.1-0.2,47.5-2,71.9-8.6c25.4-6.9,16.8-6.1,45.5-18.8c25.9-11.5,67.1-16.9,80.3-18.8
			c22-3.2,41.6-4.7,56.5-5.4"/>
		<path class="st23" d="M601.3,319.3c-12.6-0.6-31.8-1.8-50.5-4.3c-11.2-1.5-30-8.3-54.2-15.6c-27.1-8.2-30.9-9.2-52.4-14.7
			c-20.7-5.3-21.8-6.7-39.6-6.8l0,0c17.9-0.2,23.6,0.2,44.3-5.1c21.6-5.5,19-7.7,43.8-17.4c17.3-6.7,45-13.1,56.2-14.6
			c18.7-2.6,39.1-3.7,51.7-4.3"/>
		<path class="st24" d="M601.1,225.3c-5.8-0.1-13.5-0.4-22.1-0.9c-5.2-0.3-13.9-1.8-25.1-3.4c-12.5-1.8-14.3-1-24.2-2.2
			c-9.6-1.2-6.7-0.7-14.9-0.7l-3.4,0.2c8.3,0,10.9-2,20.5-3.1c10-1.2,8.8-1.7,20.2-3.8c8-1.5,20.8-2.9,26-3.2
			c8.6-0.6,17.4-0.8,23.2-0.9"/>
		<path class="st25" d="M601.9,342.6c-18-0.8-34,0.9-42.6-2.6c-6.9-2.8-18.8-6-36.4-13.4c-21.3-8.9-12.3-4.9-30.2-10.2
			c-17.3-5.1-43.1-6.9-58-7l4.7-0.3c14.9-0.2,33.2,0.6,50.5-4.6c18-5.3,13.8-3.1,36.4-11c20.2-7,18.2-3.8,34.9-14.3
			c6.5-4.1,14.8-5.8,23.9-7.2c3-0.5,13.2-0.6,15.9-0.7"/>
		<path class="st26" d="M601,218.8c-2.9-0.1-31.9-3.9-34.3-4.6c-8-2.5,16.9,2,11.4,1c-6.2-1.1-6.5-0.3-11.4-1
			c-4.7-0.7-2.1-1-6.1-1.1l0,0c4.1,0,3.7-0.1,8.8-0.4c7.3-0.4,7.8,0.2,17.1-1.2c4-0.6,12.1-2.7,14.9-2.8"/>
		<path class="st27" d="M601,303.2c-5.1,0.4-9.3,0.4-16.9,0.7c-4.6,0.2-12.3-0.2-22.3-0.4c-11.1-0.3-12.7-0.3-21.5-0.4
			c-8.5-0.1-8.9-0.2-16.2,0.4l0,0c7.2-0.7,9.5-0.8,17.8-2.5c8.6-1.7,7.5-1.9,17.3-4.4c6.8-1.7,17.9-3.7,22.4-4.4
			c7.5-1.1,14.2-1.9,19.2-2.5"/>
		<path class="st28" d="M601.5,320c-3.1-0.1-7.1-0.3-11.7-0.7c-2.7-0.3-7.3-1.4-13.3-2.7c-6.6-1.4-7.5-1.6-12.8-2.5
			c-5.1-0.9-5.3-1.1-9.7-1.2l0,0c4.4,0,5.8,0,10.8-0.9c5.3-0.9,4.6-1.3,10.7-3c4.2-1.1,11-2.2,13.7-2.5c4.6-0.4,8.6-0.6,11.7-0.7"/>
		<path class="st29" d="M600.6,261.6c-6.3,0.8-21.6,1.9-31,2.8c-5.7,0.5-15.3,0.5-27.8,0.8c-13.9,0.3-15.8,0.4-26.8,0.9
			c-10.6,0.4-11.2,0.3-20.1,1.5l0,0c9-1.3,11.9-1.7,22.1-4.2c10.6-2.7,9.3-2.9,21.4-6.6c8.4-2.6,22.1-5.9,27.7-7
			c9.3-1.9,28.4-3.6,34.7-4.6"/>
		<g>
			<g>
				<line class="st30" x1="495.8" y1="261.4" x2="495.8" y2="259.4"/>
				<path class="st31" d="M495.8,255.6v-13.1c0.2-4.8,3.6-14.9,7.1-18.5l1.9-1.3"/>
				<line class="st30" x1="506.3" y1="221.7" x2="508" y2="220.5"/>
				<g>
					<path class="st32" d="M507.2,221l-1.9-0.9l0-0.1l3.1-0.7c1-0.4,1.9-0.8,2.9-1.2c-0.7,0.8-1.4,1.5-2.2,2.3l-1.8,2.6l-0.1,0
						L507.2,221z"/>
				</g>
			</g>
		</g>
	</g>
	<g>
		
			<ellipse transform="matrix(0.2898 -0.9571 0.9571 0.2898 -180.1946 267.0134)" class="st33" cx="89.8" cy="254.9" rx="32.5" ry="32.5"/>
	</g>
	<g>
		<g>
			<line class="st34" x1="268.8" y1="289" x2="121.1" y2="257.7"/>
			<g>
				<polygon points="265.8,282.7 267,288.6 263.5,293.6 277.5,290.9 				"/>
			</g>
		</g>
	</g>
	<text transform="matrix(1 0 0 1 32.3206 155.0879)" class="st35 st36">Tumor</text>
	<text transform="matrix(1 0 0 1 270.1181 25.2742)" class="st35 st36">Phylogeny</text>
	<text transform="matrix(1 0 0 1 270.1183 232.7356)" class="st35 st36">Clonal evolution</text>
</g>
</svg>
